<?xml version="1.0" encoding="utf-8"?>
<!-- Generator: Adobe Illustrator 27.5.0, SVG Export Plug-In . SVG Version: 6.00 Build 0)  -->
<svg version="1.1" xmlns="http://www.w3.org/2000/svg" xmlns:xlink="http://www.w3.org/1999/xlink" x="0px" y="0px"
	 viewBox="0 0 750 500" style="enable-background:new 0 0 750 500;" xml:space="preserve">
<g id="BACKGROUND">
	<rect style="fill:#FFFFFF;" width="750" height="500"/>
</g>
<g id="OBJECTS">
	<g>
		<path style="fill:#E5F6FC;" d="M69.393,500c13.95-156.627,143.402-278.262,296.549-282.746
			C525.612,212.578,665.909,336.563,680.607,500C476.869,500,273.131,500,69.393,500z"/>
		<g>
			
				<line style="fill:none;stroke:#E5F6FC;stroke-width:5;stroke-linecap:round;stroke-linejoin:round;stroke-miterlimit:10;" x1="444.76" y1="115.975" x2="420.404" y2="206.585"/>
			
				<line style="fill:none;stroke:#E5F6FC;stroke-width:5;stroke-linecap:round;stroke-linejoin:round;stroke-miterlimit:10;" x1="476.83" y1="217.774" x2="522.252" y2="130.66"/>
			
				<line style="fill:none;stroke:#E5F6FC;stroke-width:5;stroke-linecap:round;stroke-linejoin:round;stroke-miterlimit:10;" x1="638.447" y1="337.213" x2="706.872" y2="290.474"/>
			
				<line style="fill:none;stroke:#E5F6FC;stroke-width:5;stroke-linecap:round;stroke-linejoin:round;stroke-miterlimit:10;" x1="674.352" y1="402.574" x2="728.974" y2="392.872"/>
			
				<line style="fill:none;stroke:#E5F6FC;stroke-width:5;stroke-linecap:round;stroke-linejoin:round;stroke-miterlimit:10;" x1="51.723" y1="268.809" x2="132.019" y2="308.544"/>
			
				<line style="fill:none;stroke:#E5F6FC;stroke-width:5;stroke-linecap:round;stroke-linejoin:round;stroke-miterlimit:10;" x1="329.808" y1="205.635" x2="295.221" y2="119.852"/>
			
				<line style="fill:none;stroke:#E5F6FC;stroke-width:5;stroke-linecap:round;stroke-linejoin:round;stroke-miterlimit:10;" x1="222.294" y1="138.001" x2="271.997" y2="218.861"/>
			
				<line style="fill:none;stroke:#E5F6FC;stroke-width:5;stroke-linecap:round;stroke-linejoin:round;stroke-miterlimit:10;" x1="21.669" y1="353.715" x2="81.777" y2="364.719"/>
		</g>
	</g>
	<g>
		<defs>
			<rect id="SVGID_1_" x="444.76" y="24.713" width="301.112" height="475.287"/>
		</defs>
		<clipPath id="SVGID_00000139992522571781412240000015274922650453831553_">
			<use xlink:href="#SVGID_1_"  style="overflow:visible;"/>
		</clipPath>
		<g style="clip-path:url(#SVGID_00000139992522571781412240000015274922650453831553_);">
			<g>
				<path style="fill:#AAD447;" d="M493.241,198.793c-12.115,10.828-27.251,25.801-23.019,43.42
					c5.688,17.063,28.741,17.473,40.854,6.805c19.49-15.181,22.996-43.648,43.506-57.858c-3.834-8.996-4.491-19.309-1.828-28.718
					C532.055,164.788,509.489,185.948,493.241,198.793z"/>
				<path style="fill:#7CAC35;" d="M467.375,237.002c-1.008-5.499-0.222-11.378,2.555-16.23c2.778-4.852,7.604-8.576,13.091-9.647
					c7.081-1.382,14.209,1.566,21.375,2.403c2.235,0.261,4.764,0.447,6.201,2.179c1.056,1.272,1.211,3.05,1.223,4.703
					c0.058,8.317-2.405,16.635-6.981,23.58c-3.279,4.976-7.806,9.361-13.447,11.281c-4.009,1.365-8.613,1.3-12.49-0.466
					c-4.108-1.871-6.849-6.047-8.84-9.959C468.804,242.374,467.875,239.732,467.375,237.002z"/>
			</g>
			<g>
				<path style="fill:#111414;" d="M559.356,311.234c20.481-2.112,41.031-3.468,61.532-5.357c10.507-0.968,21.006-2.05,31.466-3.436
					c10.107-1.339,19.73-1.273,29.952-1.372c1.73-0.017,5.401,26.059,5.871,28.694c1.844,10.333,3.559,20.691,4.98,31.092
					c2.83,20.707,4.506,41.633,3.693,62.542c-0.065,1.674-0.146,3.346-0.243,5.018c-0.407,7.002-1.101,14.07,0.013,20.994
					c0.926,5.762,3.077,11.246,4.555,16.891c5.402,20.637,1.648,42.431-2.13,63.426c-7.682,0.521-15.517,0.756-23.225,0.756
					c-9.751,0.171-19.181-1.788-28.748-1.428c0.643-0.024-5.067-56.234-5.725-61.32c-2.662-20.569-6.063-41.042-10.196-61.367
					c-1.889-9.291-3.931-18.551-6.125-27.775c0.68,2.606-0.333,4.137-1.033,6.529c-1.016,3.471-1.419,7.231-2.152,10.776
					c-1.491,7.207-3.136,14.388-5.192,21.457c-2.669,9.177-6.037,18.222-7.256,27.702c-1.331,10.362-0.045,20.879-0.564,31.313
					c-0.99,19.896-8.473,38.818-15.861,57.318c-7.372,1.088-15.163,0.244-22.674,0.292c-8.433,0.054-16.853,0.265-25.281,0.513
					c-0.43,0.013,4.582-104.349,5.297-113.832C553.071,384.091,557.267,347.677,559.356,311.234z"/>
				<path style="fill:none;stroke:#FFFFFF;stroke-linecap:round;stroke-linejoin:round;stroke-miterlimit:10;" d="M625.307,379.934
					c-2.462-7.167-4.328-14.539-5.572-22.014c-8.032,0.216-16.103-1.132-23.629-3.948"/>
				<path style="fill:none;stroke:#FFFFFF;stroke-linecap:round;stroke-linejoin:round;stroke-miterlimit:10;" d="M669.627,308.109
					c9.862,32.241,13.659,66.326,11.135,99.946c-1.301,17.333-4.264,34.711-2.446,51.997c1.188,11.288,4.393,22.26,6.321,33.445
					s2.523,22.973-1.385,33.63"/>
			</g>
			<g>
				<path style="fill:#AAD447;" d="M558.218,325.739c-2.186-31.163-6.119-62.204-11.767-92.929
					c-5.967-22.56-4.402-45.878-1.144-68.786c31.318-13.227,65.718-20.657,99.575-14.244c3.128,0.33,5.994,1.967,6.052,5.333
					c1.851,19.916,8.624,38.567,12.5,58.051c6.376,31.714,8.654,64.05,10.919,96.265"/>
				<path style="fill:#7CAC35;" d="M549.777,246.482c6.629,9.021,16.217,15.491,26.332,20.288
					c10.115,4.798,20.867,8.078,31.387,11.906c2.195,0.799,4.478,1.687,6.005,3.455c1.599,1.851,2.119,4.375,2.522,6.788
					c1.548,9.286,2.182,18.724,1.89,28.134c-19.844,3.603-39.794,6.622-59.815,9.052"/>
				<path style="fill:none;stroke:#111414;stroke-linecap:round;stroke-linejoin:round;stroke-miterlimit:10;" d="M545.048,219.621
					c-2.042-12.724-2.752-25.661-2.114-38.533"/>
			</g>
			<g>
				<g>
					<path style="fill:#DF9271;" d="M568.021,133.861c3.694,8.961,7.328,17.884,8.72,27.543c0.17,1.181,0.351,2.451,1.166,3.323
						c0.682,0.73,1.685,1.043,2.609,1.423c3.081,1.263,5.721,3.574,7.382,6.46c1.979-3.85,4.281-7.533,6.875-10.997
						c1.375-1.836,2.845-3.633,3.816-5.711c1.28-2.74,1.213-5.237,0.012-7.947c-1.319-2.975-2.668-5.936-4.05-8.883
						c-2.801-5.974-5.732-11.888-8.789-17.735c0.162,0.178,0.323,0.356,0.485,0.535L568.021,133.861z"/>
					<path style="fill:#D17E54;" d="M570.506,141.308c1.924,3.985,3.378,8.061,4.624,12.28c8.221-5.981,18.446-13.739,15.925-24.673
						L570.506,141.308z"/>
				</g>
				<g>
					<path style="fill:#7CAC35;" d="M571.406,175.379c4.948-3.234,11.32-4.895,16.973-2.602
						c-1.021-9.454-12.933-16.463-14.465-23.069c-2.505,3.912-5.068,7.415-5.433,12.138
						C568.434,164.915,566.365,176.465,571.406,175.379z"/>
					<path style="fill:#7CAC35;" d="M595.585,153.527c-1.389,7.146-7.064,12.92-8.375,20.15c5.279-5.093,18.047-9.315,24.452-4.481
						c-0.046-10.789-6.09-22.166-15.753-27.342C596.976,145.674,596.822,149.775,595.585,153.527z"/>
				</g>
			</g>
			<g>
				<path style="fill:#111414;" d="M545.008,86.58c-4.711,2.599-8.891,6.158-12.208,10.395c-1.957,2.5-3.66,5.362-3.94,8.524
					c-0.32,3.624,1.385,7.32,4.235,9.58c2.851,2.26,6.739,3.084,10.305,2.364c3.566-0.72,6.773-2.923,8.889-5.882"/>
				<g>
					<path style="fill:#DF9271;" d="M541.161,130.48c3.125,6.479,8.289,12.201,14.992,14.812c7.643,2.977,16.514,1.572,23.722-2.342
						c9.217-5.006,16.163-14.148,18.184-24.44c2.021-10.293-1.042-21.529-8.251-29.147c-7.209-7.618-18.445-11.3-28.701-9.103
						C539.089,84.974,532.266,112.035,541.161,130.48z"/>
				</g>
				<g>
					<path style="fill:#111414;" d="M601.635,89.568c8.641,4.41,9.584,17.843,4.764,25.423c-9.542,12.232-27.174-2.03-22.71-14.934
						c-4.916,2.677-11.048,3.002-16.219,0.858c3.328-0.535,6.443-2.3,8.613-4.88c-13.246,5.618-29.861,2.998-42.771-2.727
						c-23.066-9.33-1.113-34.69,8.831-14.603c9.609-18.308,48.175-21.356,51.773,2.555c4.063-10.977,16.984-4.187,8.605,1.654
						C609.993,81.139,609.098,92.199,601.635,89.568z"/>
					<path style="fill:none;stroke:#333333;stroke-linecap:round;stroke-linejoin:round;stroke-miterlimit:10;" d="M542.565,78.172
						c7.327,7.134,17.032,11.784,27.184,13.024c4.611,0.563,9.391,0.424,13.755-1.167c4.364-1.591,8.278-4.764,10.081-9.045"/>
					<path style="fill:none;stroke:#333333;stroke-linecap:round;stroke-linejoin:round;stroke-miterlimit:10;" d="M558.537,66.405
						c2.349,5.944,7.695,10.614,13.901,12.143c6.206,1.529,13.11-0.123,17.951-4.296"/>
					<path style="fill:none;stroke:#333333;stroke-linecap:round;stroke-linejoin:round;stroke-miterlimit:10;" d="M600.578,88.771
						c-3.86,3.391-5.723,8.906-4.71,13.943c1.013,5.037,4.864,9.403,9.735,11.037"/>
				</g>
				<g>
					<path style="fill:#D17E54;" d="M570.168,125.319c-0.305,1.564,0.007,3.282,1.018,4.513c1.011,1.231,2.758,1.877,4.28,1.405
						c1.099-0.341,1.977-1.198,2.589-2.174c0.783-1.249,1.191-2.762,0.97-4.22c-0.22-1.457-1.114-2.834-2.435-3.488
						c-1.167-0.577-3.057-0.535-4.215,0.118C571.156,122.162,570.421,124.027,570.168,125.319z"/>
					<path style="fill:#D17E54;" d="M544.86,125.182c-0.883,0.355-1.484,1.231-1.691,2.16c-0.207,0.928-0.066,1.903,0.198,2.817
						c0.235,0.814,0.575,1.613,1.119,2.263c0.544,0.65,1.31,1.142,2.154,1.23c1.208,0.126,2.414-0.634,2.971-1.714
						c0.557-1.08,0.511-2.41,0.038-3.528C548.987,126.846,546.801,124.401,544.86,125.182z"/>
					<path style="fill:#111414;" d="M544.534,111.98c-0.089,1.427,0.683,2.636,1.723,2.701c1.04,0.064,1.955-1.04,2.043-2.467
						c0.089-1.427-0.683-2.636-1.723-2.701C545.538,109.448,544.623,110.553,544.534,111.98z"/>
					<path style="fill:#111414;" d="M564.13,114.421c-0.088,1.427,0.683,2.636,1.723,2.701c1.04,0.064,1.955-1.04,2.043-2.467
						c0.088-1.427-0.683-2.636-1.723-2.701C565.134,111.889,564.219,112.993,564.13,114.421z"/>
					<path style="fill:none;stroke:#111414;stroke-linecap:round;stroke-linejoin:round;stroke-miterlimit:10;" d="M566.96,128.791
						c-0.401,3.053-2.859,5.728-5.867,6.384c-3.009,0.656-6.357-0.752-7.993-3.361"/>
					<path style="fill:none;stroke:#111414;stroke-linecap:round;stroke-linejoin:round;stroke-miterlimit:10;" d="M555.177,109.412
						c0.376,1.581,0.65,3.186,0.819,4.803c0.123,1.177,0.189,2.382-0.099,3.529c-0.287,1.148-0.977,2.244-2.034,2.774
						c-0.508,0.255-1.073,0.368-1.62,0.525c-0.547,0.157-1.099,0.372-1.495,0.779c-0.397,0.407-0.599,1.05-0.351,1.562
						c0.247,0.512,0.842,0.745,1.393,0.886c2.347,0.601,4.904,0.346,7.086-0.708"/>
					<path style="fill:none;stroke:#111414;stroke-linecap:round;stroke-linejoin:round;stroke-miterlimit:10;" d="M550.891,105.635
						c-1.415-1.304-3.451-1.903-5.347-1.573c-1.896,0.329-3.61,1.58-4.503,3.285"/>
					<path style="fill:none;stroke:#111414;stroke-linecap:round;stroke-linejoin:round;stroke-miterlimit:10;" d="M562.441,106.501
						c1.857-1.336,4.267-1.875,6.516-1.46c2.249,0.416,4.307,1.782,5.563,3.693"/>
				</g>
				<g>
					<path style="fill:#DF9271;" d="M595.529,112.314c4.901-8.269,19.185-2.686,15.991,6.79c-2.683,7.063-14.54,10.244-18.861,3.089
						L595.529,112.314z"/>
					<g>
						<path style="fill:none;stroke:#111414;stroke-linecap:round;stroke-linejoin:round;stroke-miterlimit:10;" d="
							M603.046,113.039c-1.532,2.154-1.826,5.129-0.744,7.54"/>
						<path style="fill:none;stroke:#111414;stroke-linecap:round;stroke-linejoin:round;stroke-miterlimit:10;" d="
							M601.756,116.887c1.636,0.614,3.629,0.117,4.784-1.195"/>
					</g>
				</g>
			</g>
			<g>
				<g>
					<path style="fill:#AAD447;" d="M630.217,149.062c43.831-2.97,106.01,31.109,94.138,81.778
						c-1.688,8.264-8.514,14.477-17.191,13.182c-29.586-5.127-5.595-25.181-21.324-37.971
						c-12.764-12.331-33.184-12.718-49.819-10.04"/>
					<path style="fill:#7CAC35;" d="M687.82,214.693c-1.526-5.504,1.412-11.576,6.047-14.913c4.635-3.337,10.608-4.315,16.314-4.078
						c5.209,0.217,10.721,1.561,14.235,5.412c3.523,3.859,4.35,9.437,4.518,14.66c0.151,4.709-0.104,9.442-0.979,14.072
						c-0.619,3.27-1.611,6.603-3.829,9.083c-1.896,2.12-4.665,3.475-7.509,3.525c-2.844,0.05-5.713-1.251-7.438-3.514
						c-1.388-1.82-1.994-4.112-3.155-6.084c-2.323-3.946-6.547-6.159-10.651-7.822c-0.85-0.344-2.141-0.548-2.858-1.118
						c-0.743-0.591-1.042-1.757-1.477-2.582C689.891,219.158,688.484,217.088,687.82,214.693z"/>
				</g>
				<g>
					<g>
						<path style="fill:#487424;" d="M676.945,185.129c-39.907-4.125-81.061,4.852-115.626,25.222
							c10.023,9.07,24.344,11.75,37.854,11.306C628.756,220.685,657.204,207.182,676.945,185.129z"/>
						<path style="fill:#375B1A;" d="M670.711,191.408c-34.462-5.926-71.1,1.947-100.086,21.506
							c10.581,1.843,25.577,3.19,43.158,0.621C640.533,209.626,660.056,198.584,670.711,191.408z"/>
					</g>
					<g>
						<g>
							<path style="fill:#333333;" d="M646.756,164.087c-5.785-0.437-9.558-7.162-6.917-12.326c-0.111,0.217-3.86-4.664-4.133-5.213
								c-1.031-2.077-1.589-4.368-1.688-6.682c-0.195-4.572,1.398-9.175,4.281-12.716c0.933-1.146,4.108-3.043,3.903-4.562
								c-0.216-1.605-3.781-3.718-4.728-5.137c-3.022-4.531-3.852-10.568-1.865-15.674c2.58-6.631,9.716-11.189,16.817-10.742
								c-4.235-6.074-5.836-13.921-4.319-21.17c1.517-7.248,6.131-13.794,12.447-17.66c3.366-2.06,7.273-3.389,11.215-3.205
								c3.942,0.184,7.896,2.017,10.144,5.26c-1.917-6.405,0.657-13.737,5.761-18.056s12.362-5.701,18.883-4.226
								c6.521,1.474,12.279,5.603,16.368,10.892c2.151,2.781,3.904,5.957,4.508,9.421c0.604,3.464-0.051,7.245-2.266,9.975
								c9.468,2.189,16.597,11.862,15.884,21.554s-9.181,18.218-18.867,18.997c6.337,5.832,8.198,15.8,4.924,23.765
								c-3.274,7.965-11.226,13.637-19.766,14.748c-8.54,1.11-17.407-2.134-23.667-8.048c0.396,3.563,0.777,7.274-0.433,10.649
								c-3.257,9.082-18.131,6.951-19.921-2.07c0.644,7.28-5.005,12.023-12.016,11.446c1.676,1.441,1.931,4.251,0.543,5.971"/>
							<g>
								<polygon style="fill:#111414;" points="653.924,161.273 646.723,165.423 657.191,186.721 666.633,181.278 								"/>
								
									<rect x="642.566" y="159.705" transform="matrix(0.8663 -0.4995 0.4995 0.8663 5.4945 346.1356)" style="fill:#111414;" width="13.8" height="6.194"/>
								
									<line style="fill:none;stroke:#333333;stroke-linecap:round;stroke-linejoin:round;stroke-miterlimit:10;" x1="647.694" y1="167.398" x2="655.102" y2="163.127"/>
							</g>
						</g>
						<g>
							<polygon style="fill:#111414;" points="623.833,231.113 607.603,201.39 627.667,201.027 622.819,192.618 644.875,193.459 
								639.009,183.284 667.081,177.399 672.787,199.001 							"/>
							
								<line style="fill:none;stroke:#333333;stroke-linecap:round;stroke-linejoin:round;stroke-miterlimit:10;" x1="653.961" y1="180.15" x2="664.511" y2="177.938"/>
							<g>
								<polyline style="fill:#333333;" points="618.75,206.742 626.789,206.452 631.096,213.924 624.938,217.474 								"/>
								<polyline style="fill:#333333;" points="633.577,199.035 641.616,198.745 645.923,206.217 639.765,209.767 								"/>
								<polyline style="fill:#333333;" points="649.465,188.927 657.504,188.637 661.812,196.109 655.653,199.66 								"/>
							</g>
						</g>
					</g>
					<g>
						<path style="fill:#487424;" d="M561.32,210.351l42.554,130.542c9.895,1.741,26.341,3.367,45.958-0.766
							c19.023-4.007,33.081-11.756,41.39-17.197c-4.759-45.933-9.517-91.867-14.275-137.8c-8.532,7.217-22.015,16.737-40.523,23.075
							C603.026,219.64,573.782,213.689,561.32,210.351z"/>
						<g>
							<g>
								<polygon style="fill:#FFFFFF;" points="633.095,301.75 639.613,286.993 650.821,297.046 654.893,292.254 657.839,304.97 
									645.548,306.034 647.283,301.74 641.618,296.644 638.385,304.106 								"/>
								<polygon style="fill:#FFFFFF;" points="655.485,309.816 659.832,314.747 651.857,316.974 651.266,311.369 645.449,319.25 
									653.157,324.759 652.719,320.507 667.201,316.571 660.329,307.5 								"/>
								<polygon style="fill:#FFFFFF;" points="626.544,313.802 634.998,305.511 641.926,312.29 637.209,312.724 635.026,319.588 
									642.078,318.076 642.502,322.978 628.57,325.324 631.712,313.243 								"/>
							</g>
						</g>
						<path style="fill:none;stroke:#111414;stroke-linecap:round;stroke-linejoin:round;stroke-miterlimit:10;" d="
							M563.336,216.534c11.089,2.805,28.356,5.659,49.069,2.923c32.623-4.308,55.127-20.018,65.189-28.078"/>
					</g>
				</g>
				<g>
					<g>
						<path style="fill:#DF9271;" d="M714.276,235.445c-0.351-5.374-2.103-10.723-5.425-14.962c-3.23-4.121-8.006-7.104-13.192-7.77
							c-2.295,2.495-3.173,5.736-4.657,8.952c-10.979,20.365-36.941,27.963-57.425,35.007c0.154,6.737,1.757,13.191,1.242,20
							c28.366-0.158,56.951-7.559,77.72-27.406C713.869,244.785,714.58,240.104,714.276,235.445z"/>
						<path style="fill:#D17E54;" d="M697.863,210.868c-0.867,0.549-1.584,1.172-2.204,1.845c5.186,0.666,9.962,3.649,13.192,7.77
							c3.322,4.239,5.074,9.588,5.425,14.962c0.304,4.659-0.407,9.339-1.737,13.823c0.872-0.833,1.734-1.68,2.578-2.557
							C730.534,230.351,724.976,198.68,697.863,210.868z"/>
					</g>
					<g>
						<path style="fill:#DF9271;" d="M643.282,260.272c-1.771-8.962-10.86-14.27-19.165-9.956c-2.634,0.758-5.185-0.399-7.75-0.667
							c-7.576,2.129,3.395,7.213,6.426,7.771c-5.855-0.606-11.497-2.356-17.365-2.683c-2.989-0.11-4.299,3.142-1.358,4.434
							c0.934,0.481,1.999,0.755,2.776,1.463c-7.82-4.739-11.627,4.476-1.984,5.076c-1.765-0.443-4.848-0.021-4.746,2.37
							c1.439,3.386,6.427,3.484,9.588,4.407c-2.021-0.899-6.009-0.207-4.983,2.65c12.72,5.106,29.787,7.29,42.151-0.191
							L643.282,260.272z"/>
						<path style="fill:none;stroke:#111414;stroke-linecap:round;stroke-linejoin:round;stroke-miterlimit:10;" d="
							M621.791,256.781c1.758,0.387,3.558,0.579,5.358,0.573"/>
						<g>
							<path style="fill:none;stroke:#111414;stroke-linecap:round;stroke-linejoin:round;stroke-miterlimit:10;" d="
								M605.321,259.646c6.044,2.248,12.451,3.514,18.896,3.736"/>
							<path style="fill:none;stroke:#111414;stroke-linecap:round;stroke-linejoin:round;stroke-miterlimit:10;" d="
								M603.318,265.45c6.052,1.404,12.182,2.469,18.353,3.191"/>
							<path style="fill:none;stroke:#111414;stroke-linecap:round;stroke-linejoin:round;stroke-miterlimit:10;" d="
								M607.047,271.719c4.917,1.511,10.045,2.336,15.188,2.445"/>
						</g>
					</g>
				</g>
			</g>
			<g>
				<g>
					<path style="fill:#D17E54;" d="M487.819,242.541c-4.583-3.199-8.21-7.848-9.936-13.146c-0.891,1.211-1.576,2.404-2.01,3.572
						c-6.711,20.952,21.132,29.775,35.8,18.937c2.708-1.8,5.312-3.738,7.85-5.761c-4.42,1.362-9.021,2.12-13.638,2.02
						C499.488,248.024,493.066,246.204,487.819,242.541z"/>
					<path style="fill:#DF9271;" d="M554.697,187.038c-16.392,7.301-65.086,26.408-76.814,42.357
						c1.726,5.298,5.353,9.946,9.936,13.146c5.247,3.663,11.669,5.483,18.066,5.622c4.617,0.1,9.218-0.658,13.638-2.02
						c13.233-10.548,24.484-23.69,37.088-34.956c1.582-1.52,3.164-3.041,4.746-4.561
						C557.949,200.586,555.678,193.905,554.697,187.038z"/>
				</g>
				<g>
					<path style="fill:#DF9271;" d="M557.396,180.378c2.622-2.139,6.109-3.854,9.536-3.667c1.259,1.744-0.195,4.881,1.503,6.809
						c2.084,2.628-8.164,2.534-9.878,4.178C548.88,192.175,553.135,184.084,557.396,180.378z"/>
					<g>
						<polygon style="fill:#111414;" points="557.252,170.143 586.441,210.204 613.484,189.503 605.404,185.26 608.376,182.776 
							596.307,175.708 598.807,172.759 587.21,166.99 591.712,163.054 576.789,159.188 						"/>
						<g>
							<polyline style="fill:#333333;" points="568.021,170.221 576.404,165.817 581.766,167.796 570.625,174.611 							"/>
							<polyline style="fill:#333333;" points="576.845,176.632 585.228,172.227 590.589,174.206 579.448,181.022 							"/>
							<polyline style="fill:#333333;" points="584.765,186.093 593.148,181.689 598.51,183.667 587.369,190.483 							"/>
							<polyline style="fill:#333333;" points="587.477,195.653 598.972,189.614 604.334,191.592 590.011,200.355 							"/>
						</g>
					</g>
					<g>
						<path style="fill:#DF9271;" d="M553.471,187.726c-0.066,0.102-0.188,0.165-0.31,0.161c9.083-2.806,18.338-5.967,25.68-12.34
							c4.273-4.946,8.183-1.141,5.151,4.07c6.875-6.059,8.363,1.435,3.523,5.945c8.149-4.927,4.336,5.311,0.069,7.66
							c7.106-1.08-0.092,5.965-2.669,7.109c-7.412,3.001-17.953,9.894-25.865,6.451L553.471,187.726z"/>
						<path style="fill:none;stroke:#111414;stroke-linecap:round;stroke-linejoin:round;stroke-miterlimit:10;" d="
							M566.261,182.882c-1.729,0.221-3.422,0.713-5,1.452"/>
						<g>
							<path style="fill:none;stroke:#111414;stroke-linecap:round;stroke-linejoin:round;stroke-miterlimit:10;" d="
								M583.717,179.851c-3.72,4.322-8.507,7.719-13.816,9.802"/>
							<path style="fill:none;stroke:#111414;stroke-linecap:round;stroke-linejoin:round;stroke-miterlimit:10;" d="
								M588.442,184.861c-3.952,4.185-8.861,7.461-14.242,9.505"/>
							<path style="fill:none;stroke:#111414;stroke-linecap:round;stroke-linejoin:round;stroke-miterlimit:10;" d="
								M588.196,193.112c-4.004,3.164-8.671,5.485-13.611,6.767"/>
						</g>
					</g>
				</g>
			</g>
		</g>
	</g>
	<g>
		<defs>
			<rect id="SVGID_00000041279414660431821710000009515602633291959701_" x="15.915" y="57.61" width="404.489" height="442.39"/>
		</defs>
		<clipPath id="SVGID_00000178895593064857538310000008494148552992953241_">
			<use xlink:href="#SVGID_00000041279414660431821710000009515602633291959701_"  style="overflow:visible;"/>
		</clipPath>
		<g style="clip-path:url(#SVGID_00000178895593064857538310000008494148552992953241_);">
			<g>
				<g>
					<path style="fill:#F3D54A;" d="M209.775,180.585c18.288,31.43,53.452,34.79,83.783,15.861
						c15.709-9.388,25.312-23.306,36.137-37.51c2.95,6.272,13.699,13.238,13.299,19.772c-3.691,9.457-9.151,18.307-15.356,26.336
						c-32.787,43.96-110.774,60.568-149.614,16.375"/>
					<path style="fill:none;stroke:#E9BC38;stroke-linecap:round;stroke-linejoin:round;stroke-miterlimit:10;" d="M202.904,196.063
						c11.33,12.472,27.991,19.588,44.817,20.483c16.826,0.895,33.709-4.171,48.037-13.038c14.328-8.868,26.181-21.406,35.445-35.48"
						/>
					<path style="fill:none;stroke:#E9BC38;stroke-linecap:round;stroke-linejoin:round;stroke-miterlimit:10;" d="M193.198,220.888
						c8.732,7.198,19.595,11.589,30.77,13.373c11.175,1.784,22.66,1.036,33.735-1.291c33.554-7.05,63.63-29.211,80.303-59.17"/>
				</g>
				<g>
					<g>
						<path style="fill:#9C522A;" d="M335.23,154.652c8.489-9.679,19.051-12.852,28.459-2.474
							c3.893,3.542,11.627,2.921,14.169,7.576c-0.465,3.932-6.615,3.406-9.362,2.164c2.733,0.196,8.37,0.541,9.672,3.664
							c0.621,1.489-0.541,2.8-1.773,3.49c-0.881,0.493-1.881,0.766-2.879,0.89c-1.834,0.229-3.617,0.654-5.182-0.753
							c0.928,0.835,1.696,1.983,1.639,3.23c-0.057,1.247-1.24,2.458-2.456,2.177c0.778,0.373,1.314,1.204,1.334,2.066
							c0.019,0.862-0.48,1.716-1.24,2.123c-0.77,0.412-1.697,0.365-2.564,0.264c-5.4-0.628-10.588-2.967-14.634-6.599
							c-0.99,1.682-2.109,3.334-3.649,4.533c-1.54,1.199-3.574,1.894-5.473,1.447c-1.566-0.369-2.869-1.458-3.924-2.674
							c-1.869-2.153-3.774-5.319-3.42-8.245"/>
						<path style="fill:none;stroke:#111414;stroke-linecap:round;stroke-linejoin:round;stroke-miterlimit:10;" d="
							M354.969,154.194c3.187,2.397,6.581,4.52,10.132,6.337"/>
						<path style="fill:none;stroke:#111414;stroke-linecap:round;stroke-linejoin:round;stroke-miterlimit:10;" d="M352.62,167.348
							c2.854,2.179,5.929,4.069,9.163,5.63"/>
					</g>
					<g>
						<g>
							<path style="fill:#AAD447;" d="M405.992,164.938c0-13.982-11.769-25.215-25.941-24.335
								c-11.911,0.74-21.701,10.271-22.73,22.162c-0.677,7.819,2.34,14.955,7.5,19.855c2.465,2.341,4.024,5.565,3.958,8.964
								c-0.006,0.317,0,0.638,0.018,0.961c0.368,6.584,5.892,11.95,12.484,12.115c7.237,0.181,13.161-5.632,13.161-12.829
								c0-0.019,0-0.039,0-0.058c-0.016-3.438,1.339-6.697,3.846-9.049C403.029,178.275,405.992,171.953,405.992,164.938z"/>
							<path style="fill:#FFFFFF;" d="M390.535,151.382c2.14,3.988,6.832,5.447,10.176,8.169
								C402.92,151.677,386.62,136.758,390.535,151.382z"/>
							<path style="fill:none;stroke:#111414;stroke-linecap:round;stroke-linejoin:round;stroke-miterlimit:10;" d="
								M377.874,190.741c-0.065,0.092-0.13,0.184-0.195,0.276c1.543-6.892-7.635-10.921-6.565-17.77
								c0.212-1.23,1.222-2.396,2.545-2.075c1.22,0.296,1.259,1.431,2.079,2.218c0.546,0.525,1.428,0.781,2.076,0.389
								c0.548-0.331,0.769-0.996,1.083-1.554c0.483-0.859,1.293-1.553,2.249-1.792c0.956-0.239,2.047,0.021,2.72,0.741
								c0.566,0.605,0.895,1.536,1.695,1.753c0.504,0.137,1.038-0.073,1.478-0.354c0.44-0.281,0.836-0.638,1.314-0.847
								c1.249-0.546,2.802,0.116,3.538,1.263c1.044,1.628,0.514,3.308,0.011,4.981c-1.409,4.574-6.032,8.339-5.451,13.443"/>
						</g>
						<g>
							<path style="fill:#7CAC35;" d="M367.777,190.256h27.479v3.878c0,7.588-6.151,13.739-13.739,13.739h0
								c-7.588,0-13.739-6.151-13.739-13.739V190.256z"/>
							
								<line style="fill:none;stroke:#111414;stroke-linecap:round;stroke-linejoin:round;stroke-miterlimit:10;" x1="373.128" y1="205.014" x2="391.721" y2="203.332"/>
							
								<line style="fill:none;stroke:#111414;stroke-linecap:round;stroke-linejoin:round;stroke-miterlimit:10;" x1="369.139" y1="200.106" x2="394.518" y2="198.579"/>
						</g>
					</g>
					<path style="fill:#BA704F;" d="M342.031,168.329c-5.228,3.155-12.519,0.57-14.824-4.972
						c1.976-5.721,7.903-12.165,14.546-11.292c6.569,2.327,11.853,8.031,19.161,8.88c4.411,0.257,5.054,4.618,1.175,6.422
						C354.431,172.63,348.298,163.546,342.031,168.329z"/>
				</g>
			</g>
			<g>
				<g>
					<g>
						<path style="fill:#111414;" d="M116.937,107.306c-13.207-11.901-46.36-0.854-28.811,12.101
							c-9.542-0.051-21.28,9.029-14.919,18.318c9.254,9.879,26.362,2.211,30.653-8.703c-2.99,15.272,18.904,5.602,17.571-4.506"/>
						<path style="fill:none;stroke:#333333;stroke-linecap:round;stroke-linejoin:round;stroke-miterlimit:10;" d="
							M114.426,110.494c-3.704-3.152-8.764-4.652-13.587-4.026c-2.93,0.38-6.016,1.757-7.199,4.464
							c-0.721,1.65-0.617,3.581,0.005,5.271c0.622,1.69,1.725,3.164,2.957,4.477c-3.885-0.253-7.845,1.545-10.213,4.635
							c-0.949,1.238-1.623,3.066-0.65,4.285c0.714,0.894,2.005,1.042,3.148,1.006c6.633-0.207,12.795-4.378,16.236-10.053
							c-0.76,1.929,0.053,4.296,1.731,5.513c1.679,1.217,4.046,1.3,5.907,0.385c1.861-0.915,3.202-2.731,3.744-4.732"/>
					</g>
					<path style="fill:#AAD447;" d="M120.345,102.851c-20.814,8.349-4.456,36.032,15.385,27.473"/>
				</g>
				<g>
					<path style="fill:#111414;" d="M202.232,77.091c18.954,5.431,6.539,33.02-2.396,42.918c12.79,11.135-3.312,26.53-15.933,27.949
						c-12.994,4.642-27.299,5.471-40.355,0.556c-22.043-6.79-31.102-35.217-21.437-55.107c0.943-4.209,15.854-24.086,18.591-15.124
						c7.065-6.954,38.848-19.502,38.978-2.051C187.113,74.647,194.941,74.943,202.232,77.091z"/>
					<path style="fill:none;stroke:#F3D54A;stroke-linecap:round;stroke-linejoin:round;stroke-miterlimit:10;" d="M194.414,123.737
						c2.102,0.269,4.13,1.338,5.382,3.048c1.251,1.711,1.644,4.069,0.83,6.026c-0.813,1.957-2.884,3.376-4.999,3.244
						c-2.115-0.132-4.055-1.932-4.173-4.048"/>
					<path style="fill:none;stroke:#333333;stroke-linecap:round;stroke-linejoin:round;stroke-miterlimit:10;" d="M185.94,81.988
						c2.129-0.644,4.291-1.24,6.509-1.414c2.218-0.173,4.515,0.098,6.495,1.111c2.96,1.516,4.937,4.604,5.559,7.872
						c0.622,3.267,0.001,6.681-1.265,9.757c-1.266,3.075-3.152,5.854-5.134,8.525"/>
				</g>
			</g>
			<g>
				<path style="fill:#BA704F;" d="M128.002,174.383c25.255,6.379,52.987,11.009,78.049,2.274
					c-12.077-10.962-30.662-14.158-46.215-17.618c-14.545-2.448-29.333-3.083-44.08-3.294c-4.98-0.359-10.684,0.087-15.272,2.126
					C105.448,167.952,117.588,171.97,128.002,174.383z"/>
				<g>
					<path style="fill:#F3D54A;" d="M206.051,176.656c-25.062,8.736-52.794,4.106-78.049-2.274
						c-10.414-2.412-22.554-6.431-27.519-16.513c-4.417,1.963-7.8,5.403-8.499,11.039c-7.747,31.878-4.232,66.409,10.219,95.921
						l63.093,9.617c7.421-5.306,12.181-13.475,16.626-21.441c6.562-11.76,12.925-23.672,18.056-36.138
						c2.574-6.254,4.834-12.643,6.614-19.169c0.87-3.188,1.626-6.407,2.249-9.653c0.453-2.36,1.867-6.508-0.03-8.625
						C207.938,178.445,207.013,177.529,206.051,176.656z"/>
					<path style="fill:none;stroke:#111414;stroke-linecap:round;stroke-linejoin:round;stroke-miterlimit:10;" d="M192.164,234.725
						c8.41-16.311,15.056-29.686,14.478-46.095"/>
					<g>
						<path style="fill:none;stroke:#E9BC38;stroke-linecap:round;stroke-linejoin:round;stroke-miterlimit:10;" d="
							M127.493,181.974c2.347,29.103-2.608,58.766-14.287,85.526"/>
						<path style="fill:none;stroke:#E9BC38;stroke-linecap:round;stroke-linejoin:round;stroke-miterlimit:10;" d="
							M189.008,185.799c0.926,30.719-9.709,61.649-29.331,85.302"/>
						<path style="fill:none;stroke:#E9BC38;stroke-linecap:round;stroke-linejoin:round;stroke-miterlimit:10;" d="
							M156.167,187.622c1.846,28.771-3.212,57.962-14.63,84.435"/>
						<path style="fill:none;stroke:#E9BC38;stroke-linecap:round;stroke-linejoin:round;stroke-miterlimit:10;" d="
							M104.033,204.443c-1.094,21.047,0.616,42.238,5.072,62.837"/>
					</g>
				</g>
			</g>
			<g>
				<path style="fill:#BA704F;" d="M137.843,163.038c-0.182,0.437-0.367,0.902-0.299,1.371c0.097,0.67,0.673,1.152,1.217,1.554
					c7.17,5.292,16.044,8.238,24.955,8.286c1.961-10.311,3.923-20.623,5.884-30.934c0.202-1.063,0.402-2.177,0.084-3.211
					c-0.384-1.249-1.45-2.153-2.501-2.93c-2.831-2.091-6.05-3.838-9.551-4.188c-3.977-0.398-7.98,1.102-9.404,4.936
					c-1.987,5.348-4.348,10.581-6.537,15.85C140.409,156.86,139.126,159.949,137.843,163.038z"/>
				<path style="fill:#9C522A;" d="M146.742,140.019c0.316,11.249,7.056,22.375,18.806,24.348
					c1.582-6.105,2.964-12.262,4.143-18.457"/>
			</g>
			<g>
				<path style="fill:#BA704F;" d="M59.348,346.879c0.28-1.202,0.561-2.405,0.841-3.607
					c-25.224,49.375-21.667,108.46-30.496,162.302c14.946,3.654,32.384,7.019,47.596,4.228
					c1.664-42.115,23.87-79.731,40.039-117.715c6.262-14.757,11.815-29.427,18.776-43.896"/>
				<path style="fill:#BA704F;" d="M180.253,305.783c10.589,68.274,15.779,137.385,15.508,206.475
					c-18.432,2.961-37.13,4.265-55.794,3.893c2.111-58.136-1.769-116.488-11.559-173.833"/>
				<g>
					<path style="fill:#111414;" d="M100.483,262.607c-36.509,34.976-60.085,85.016-63.568,135.714
						c15.652,7.234,33.034,9.628,50.121,11.937c36.751,6.29,73.946,6.408,110.138-3.065c5.576-34.97-1.327-70.445-13.95-103.238
						c-2.124-5.544-4.428-11.021-6.901-16.419c-1.094-2.387-5.435-15.105-7.802-15.722
						C143.689,265.309,125.619,268.65,100.483,262.607z"/>
					<path style="fill:none;stroke:#FFFFFF;stroke-linecap:round;stroke-linejoin:round;stroke-miterlimit:10;" d="M107.261,266.408
						c-29.933,39.437-48.494,87.405-52.901,136.719"/>
					<path style="fill:none;stroke:#FFFFFF;stroke-linecap:round;stroke-linejoin:round;stroke-miterlimit:10;" d="M110.915,341.582
						c20.51-0.86,40.754-7.391,57.9-18.679c-0.285,0.368-0.57,0.735-0.855,1.103"/>
					<path style="fill:none;stroke:#FFFFFF;stroke-linecap:round;stroke-linejoin:round;stroke-miterlimit:10;" d="M164.824,337.73
						c-9.888,10.04-22.251,17.624-35.681,21.89"/>
				</g>
			</g>
			<g>
				<path style="fill:#BA704F;" d="M192.221,138.97c-3.772,6.125-9.496,11.288-16.431,13.198
					c-7.908,2.178-16.588-0.128-23.357-4.761c-8.656-5.924-14.628-15.73-15.583-26.175s3.242-21.309,11.195-28.148
					c7.952-6.84,19.505-9.35,29.483-6.114C198.946,93.916,202.96,121.534,192.221,138.97z"/>
				<g>
					<path style="fill:#111414;" d="M136.007,114.664c6.536,14.259,14.464,3.899,10.552-6.683
						c6.965,3.346,18.845,1.36,12.011-11.164c11.455,11.161,48.324,3.077,24.811-11.603c-9.04-5.644-21.152-5.763-30.609-0.849
						c-10.352,5.495-20.246,19.657-15.688,31.438"/>
					<path style="fill:none;stroke:#333333;stroke-linecap:round;stroke-linejoin:round;stroke-miterlimit:10;" d="M119.894,107.577
						c2.638,1.052,5.438,1.869,8.275,1.74c2.838-0.13,5.735-1.327,7.382-3.642c1.647-2.314,1.709-5.808-0.267-7.848
						c2.914,1.76,6.396,2.677,9.769,2.218c3.373-0.459,6.592-2.383,8.304-5.326c1.711-2.943,1.733-6.881-0.224-9.667
						c2.72,3.64,6.591,6.534,11.027,7.514c4.436,0.98,9.42-0.146,12.617-3.374c3.197-3.229,4.216-8.599,1.944-12.534"/>
					<path style="fill:#111414;" d="M136.007,114.664c6.536,14.259,17.406,2.279,10.552-6.683
						c5.824,7.615,18.845,1.36,12.011-11.164c11.455,11.161,48.324,3.077,24.811-11.603c-9.04-5.644-21.152-5.763-30.609-0.849
						c-10.352,5.495-20.246,19.657-15.688,31.438"/>
				</g>
				<g>
					<path style="fill:#9C522A;" d="M164.503,130.864c0.143,1.587-0.343,3.264-1.475,4.385c-1.132,1.121-2.936,1.585-4.402,0.96
						c-1.059-0.451-1.844-1.395-2.352-2.427c-0.651-1.323-0.901-2.87-0.533-4.297c0.369-1.427,1.398-2.705,2.78-3.22
						c1.22-0.455,3.096-0.219,4.18,0.549C163.844,127.622,164.385,129.552,164.503,130.864z"/>
					<path style="fill:#9C522A;" d="M189.692,133.321c0.841,0.443,1.35,1.377,1.46,2.322c0.111,0.945-0.129,1.9-0.486,2.782
						c-0.317,0.786-0.737,1.545-1.345,2.136s-1.421,1.002-2.268,1.003c-1.215,0.001-2.337-0.878-2.78-2.009
						c-0.443-1.131-0.261-2.449,0.324-3.514C185.417,134.554,187.841,132.345,189.692,133.321z"/>
					<path style="fill:#111414;" d="M191.369,120.222c-0.058,1.428-0.95,2.552-1.991,2.51s-1.838-1.235-1.78-2.663
						c0.058-1.429,0.95-2.552,1.991-2.51C190.631,117.601,191.427,118.793,191.369,120.222z"/>
					<path style="fill:#111414;" d="M171.626,120.641c-0.058,1.429-0.95,2.552-1.991,2.51c-1.041-0.042-1.838-1.235-1.78-2.663
						c0.058-1.429,0.95-2.552,1.991-2.51C170.888,118.02,171.685,119.213,171.626,120.641z"/>
					<path style="fill:none;stroke:#111414;stroke-linecap:round;stroke-linejoin:round;stroke-miterlimit:10;" d="M167.339,134.646
						c0.086,3.078,2.257,5.99,5.182,6.951c2.925,0.961,6.401-0.096,8.295-2.524"/>
					<path style="fill:none;stroke:#111414;stroke-linecap:round;stroke-linejoin:round;stroke-miterlimit:10;" d="M179.092,114.866
						c2.642,3.761,4.785,7.873,6.355,12.192c0.234,0.644,0.446,1.397,0.085,1.979c-0.275,0.443-0.806,0.648-1.311,0.779
						c-1.562,0.407-3.234,0.382-4.783-0.072"/>
					<path style="fill:none;stroke:#111414;stroke-linecap:round;stroke-linejoin:round;stroke-miterlimit:10;" d="M173.633,112.382
						c-2.619-2.239-6.157-2.917-9.184-1.723c-3.273,1.291-4.585,4.233-4.845,4.851"/>
					<path style="fill:none;stroke:#111414;stroke-linecap:round;stroke-linejoin:round;stroke-miterlimit:10;" d="M183.173,112.618
						c0.543-2.542,2.567-4.513,5.106-4.979c2.604-0.477,5.257,0.719,6.638,3"/>
				</g>
				<g>
					<path style="fill:#BA704F;" d="M141.203,116.625c-4.161-8.349-19.086-4.532-16.806,5.206c1.525,6.189,11.76,11.551,16.56,6.256
						C142.628,124.605,142.289,120.318,141.203,116.625z"/>
					<path style="fill:none;stroke:#F3D54A;stroke-linecap:round;stroke-linejoin:round;stroke-miterlimit:10;" d="M135.597,126.856
						c7.181,10.772-11.639,12.467-5.32,2.404"/>
					<g>
						<path style="fill:none;stroke:#111414;stroke-linecap:round;stroke-linejoin:round;stroke-miterlimit:10;" d="
							M133.448,116.665c1.304,2.299,1.291,5.289-0.032,7.577"/>
						<path style="fill:none;stroke:#111414;stroke-linecap:round;stroke-linejoin:round;stroke-miterlimit:10;" d="
							M134.337,120.625c-1.691,0.443-3.622-0.256-4.637-1.679"/>
					</g>
				</g>
			</g>
			<g>
				<g>
					<path style="fill:#BA704F;" d="M127.962,213.862c2.143-2.751,5.087-4.87,8.375-6.031c3.361-1.187,7.064-1.396,10.228-3.038
						c0.852-0.442,1.842-0.996,2.705-0.576c0.677,0.329,0.967,1.147,1.02,1.898c0.16,2.237-1.186,4.323-2.802,5.879
						c-1.616,1.555-3.545,2.77-5.082,4.403c-1.537,1.634-2.679,3.892-2.187,6.08"/>
					<g>
						<g>
							<path style="fill:#7CAC35;" d="M158.363,251.261l-20.159-68.613l-5.611,0.886l9.833,72.193
								c0.714,0.36,5.13,2.496,10.069,0.537C155.989,254.879,157.778,252.224,158.363,251.261z"/>
							<polyline style="fill:#487424;" points="133.461,191.901 143.775,201.609 139.402,186.725 133.213,192.008 							"/>
						</g>
					</g>
					<g>
						<path style="fill:#BA704F;" d="M124.041,222.881c-0.883-4.564,2.778-9.889,7.081-11.182c4.283,1.733,7.49,6.202,12.396,7.232
							c2.195,1.192,2.669-1.898,3.596-3.196c2.955-3.095,7.051,1.383,5.566,4.723c2.38,0.587,3.64,3.519,2.427,5.65
							c2.613,1.239,2.921,5.154,0.535,6.787c4.109,17.487-24.717,8.77-32.454,3.595L124.041,222.881z"/>
						<path style="fill:none;stroke:#111414;stroke-linecap:round;stroke-linejoin:round;stroke-miterlimit:10;" d="
							M152.597,220.431c-0.796,1.464-1.603,2.942-2.709,4.189c-1.106,1.247-2.555,2.26-4.2,2.53
							c-1.695,0.278-3.407-0.246-5.045-0.763"/>
						<path style="fill:none;stroke:#111414;stroke-linecap:round;stroke-linejoin:round;stroke-miterlimit:10;" d="
							M155.029,226.083c-0.956,1.485-1.921,2.981-3.152,4.246c-1.232,1.265-2.765,2.299-4.496,2.648
							c-1.842,0.37-3.746-0.056-5.546-0.595"/>
						<path style="fill:none;stroke:#111414;stroke-linecap:round;stroke-linejoin:round;stroke-miterlimit:10;" d="
							M155.492,232.856c-1.473,1.441-2.965,2.896-4.734,3.953s-3.87,1.694-5.901,1.347c-0.811-0.138-1.596-0.431-2.299-0.858"/>
					</g>
					<g>
						<polygon style="fill:#375B1A;" points="148.105,176.489 148.627,188.507 180.95,182.658 180.904,180.039 						"/>
						<g>
							<path style="fill:#7CAC35;" d="M149.147,179.169l-25.26-1.64c-0.596,0.966-2.362,4.103-1.89,8.329
								c0.56,5.014,3.866,7.943,4.615,8.575c7.726-2.856,15.452-5.713,23.179-8.569c0.168-0.189,1.527-1.767,1.118-3.912
								C150.594,180.304,149.441,179.389,149.147,179.169z"/>
							<g>
								<polygon style="fill:#375B1A;" points="145.21,192.951 135.054,187.599 123.464,217.972 126.725,218.216 								"/>
								<path style="fill:#375B1A;" d="M138.289,190.27l2.315-5.267c0.117,0.936,1.613,2.629,2.326,2.844
									c-0.654,1.226-1.307,2.452-1.961,3.678"/>
							</g>
							<g>
								<polygon style="fill:#375B1A;" points="143.274,173.154 134.463,180.218 113.796,147.765 116.886,145.365 								"/>
								<path style="fill:#375B1A;" d="M140.017,175.118l2.217,3.776c-0.221,0.095-0.461-0.05-0.809,0.423
									c-0.544,0.74-1.033,1.765-1.01,1.97c-1.359-1.342-2.164-2.901-3.524-4.244"/>
							</g>
							<path style="fill:none;stroke:#111414;stroke-linecap:round;stroke-linejoin:round;stroke-miterlimit:10;" d="
								M143.538,188.203c-1.922-0.432-3.392-2.223-3.67-4.174c-0.277-1.951,0.539-3.97,1.929-5.367"/>
							<path style="fill:#375B1A;" d="M146.654,182.289c0.014,0.723,0.274,1.44,0.729,2.003c0.239,0.296,0.549,0.56,0.923,0.628
								c0.4,0.073,0.822-0.096,1.107-0.387c0.285-0.291,0.443-0.688,0.5-1.091c0.058-0.403,0.021-0.813-0.039-1.216
								c-0.064-0.425-0.156-0.853-0.355-1.234c-0.198-0.382-0.514-0.717-0.917-0.865c-0.435-0.159-1.148-0.051-1.439,0.345
								C146.798,180.973,146.643,181.681,146.654,182.289z"/>
						</g>
					</g>
				</g>
				<g>
					<path style="fill:#F3D54A;" d="M49.018,191.759c-13.723,13.872-20.434,38.309-5.935,53.941
						c17.306,14.199,45.945,7.411,65.538,0.972c5.992-1.777,11.589-5.028,17.629-6.446c0.895-0.111,1.277-0.109,1.411-0.945
						c0.289-1.804-4.25-20.96-3.724-21.068c-6.991,2.136-69.865,12.897-44.76-5.437c5.498-5.117,13.915-7.54,17.613-14.249
						c5.57-12.053,6.234-28.548,3.299-40.984C80.854,165.034,63.179,176.713,49.018,191.759z"/>
					<path style="fill:none;stroke:#111414;stroke-linecap:round;stroke-linejoin:round;stroke-miterlimit:10;" d="M89.248,222.6
						c11.435-0.706,22.827-2.105,34.094-4.186"/>
					<path style="fill:none;stroke:#111414;stroke-linecap:round;stroke-linejoin:round;stroke-miterlimit:10;" d="M95.756,250.502
						c10.306-2.929,20.86-5.795,31.906-11.22"/>
					<path style="fill:none;stroke:#111414;stroke-linecap:round;stroke-linejoin:round;stroke-miterlimit:10;" d="M88.462,206.922
						c7.511-2.294,14.139-7.363,18.319-14.011"/>
					<path style="fill:none;stroke:#E9BC38;stroke-linecap:round;stroke-linejoin:round;stroke-miterlimit:10;" d="M97.365,165.531
						c-26.06,6.969-51.967,31.259-50.73,59.768c4.461,34.099,59.924,17.198,79.713,6.69"/>
					<path style="fill:none;stroke:#E9BC38;stroke-linecap:round;stroke-linejoin:round;stroke-miterlimit:10;" d="M100.347,182.041
						c-15.59,3.563-29.285,14.631-36.038,29.127c-4.67,7.667-0.426,15.784,8.083,17.821c16.978,5.799,32.944,0.398,49.244-4.83"/>
				</g>
			</g>
		</g>
	</g>
	<g>
		<g>
			<path style="fill:#7CAC35;" d="M566.367,499.815c-0.458-3.757-0.681-7.542-0.673-11.326c0.068-34.681,22.075-65.289,45.67-89.074
				c22.947-23.13,51.366-40.889,82.402-50.893c2.421-0.78,5.225-1.474,7.375-0.114c2.587,1.637,2.798,5.274,2.619,8.331
				c-2.395,40.901-24.406,80.214-58.022,103.636c19.321-12.108,41.989-18.814,64.788-19.165c1.128-0.017,2.469,0.094,3.038,1.069
				c0.495,0.849,0.137,1.921-0.24,2.828c-9.227,22.222-25.195,41.593-45.246,54.893"/>
			<g>
				<path style="fill:none;stroke:#111414;stroke-linecap:round;stroke-linejoin:round;stroke-miterlimit:10;" d="M586.875,497.252
					c13.19-39.518,38.333-74.96,71.273-100.467"/>
				<path style="fill:none;stroke:#111414;stroke-linecap:round;stroke-linejoin:round;stroke-miterlimit:10;" d="M680.693,462.166
					c-14.397,16.772-33.433,29.521-54.423,36.448"/>
			</g>
		</g>
		<path style="fill:#7CAC35;" d="M213.921,499.901c-12.218-63.728-57.397-125.039-114.552-155.76
			c-4.357,31.043,3.052,63.595,20.416,89.694c-26.113-31.905-68.168-50.056-109.296-47.172
			c1.267,46.717,29.569,90.362,70.321,113.239"/>
		<g>
			<path style="fill:none;stroke:#111414;stroke-linecap:round;stroke-linejoin:round;stroke-miterlimit:10;" d="M110.171,363.688
				c30.555,29.843,52.784,68.124,63.557,109.454"/>
			<path style="fill:none;stroke:#111414;stroke-linecap:round;stroke-linejoin:round;stroke-miterlimit:10;" d="M31.084,404.293
				c12.732,7.419,25.486,14.853,37.445,23.463c25.757,18.546,47.595,42.509,63.676,69.873"/>
		</g>
	</g>
	<g>
		<polygon style="fill:#487424;" points="436.209,65.404 457.932,65.404 446.764,86.137 423.675,86.137 		"/>
		<polygon style="fill:#487424;" points="313.79,65.404 292.068,65.404 303.235,86.137 326.324,86.137 		"/>
		<polygon style="fill:#7CAC35;" points="299.363,56.322 450.637,56.322 438.327,80.688 310.277,80.688 		"/>
	</g>
	<g>
		<g>
			<defs>
				
					<rect id="SVGID_00000057864046914113292390000015080431101959987595_" x="132.205" y="251.486" width="473.399" height="248.514"/>
			</defs>
			<clipPath id="SVGID_00000163773848063262094010000015014392837703331722_">
				<use xlink:href="#SVGID_00000057864046914113292390000015080431101959987595_"  style="overflow:visible;"/>
			</clipPath>
			<g style="clip-path:url(#SVGID_00000163773848063262094010000015014392837703331722_);">
				<path style="fill:#F3D54A;" d="M219.038,592.195c3.937-3.763,8.389-7.762,9.094-13.162c0.636-4.876-1.947-10.202,0.34-14.555
					c2.281-4.34,8.023-5.18,12.915-5.498c13.815-0.898,27.63-1.796,41.444-2.694c-1.539-9.605-0.376-17.365-11.01-20.717
					c-7.905-2.492-16.586-2.001-24.301-5.033c-10.449-4.106-17.582-14.199-21.058-24.873c-3.476-10.675-3.854-22.066-4.545-33.271
					c-0.691-11.205-1.792-22.655-6.54-32.828c-1.781-0.042-3.563-0.084-5.345-0.126c-2.359,17.081-4.718,34.163-7.077,51.244
					c-0.359,2.601-1.172,5.741-3.713,6.402c-3.721,0.967-5.792-4.16-6.072-7.995c-1.766-24.18,0.655-47.69,3.773-71.615
					c0.297-2.276,0.584-4.654-0.183-6.817c-1.57-4.428-6.697-6.214-10.999-8.103c-6.383-2.803-12.026-7.105-16.598-12.355
					c-11.408,25.78-17.97,54.213-18.504,84.17c-0.955,53.593,17.549,102.998,48.988,141.501c0.044-0.07,0.087-0.144,0.132-0.214
					C205.224,607.099,211.706,599.203,219.038,592.195z"/>
				<path style="fill:#E9BC38;" d="M573.938,468.945c-5.627-1.655-10.886-1.824-16.438-4.192
					c-12.758-5.442-24.727-12.726-35.406-21.578c-3.02-2.504-7.139-5.272-10.494-3.238c-2.168,1.315-2.88,4.186-2.63,6.709
					c0.251,2.523,1.245,4.913,1.672,7.412c1.304,7.648-3.534,15.884-10.848,18.47c-4.226,1.494-9.366,1.471-12.316,4.846
					c-2.722,3.114-2.351,7.809-1.488,11.853c1.238,5.803,3.163,11.827,1.534,17.532c-1.483,5.192-5.841,9.908-4.778,15.201
					c0.748,3.727,3.989,6.352,6.048,9.547c3.544,5.499,3.472,12.501,3.134,19.034c-1.131,21.826-3.905,43.567-8.294,64.977
					c-0.477,2.329-0.971,4.767-0.314,7.051c0.657,2.285,2.884,4.311,5.219,3.867c2.7-0.514,3.842-3.675,4.495-6.345
					c1.795-7.343,3.59-14.687,5.385-22.03c0.433-1.771,1-3.729,2.574-4.649c2.198-1.285,5.127,0.318,6.353,2.55
					c1.227,2.232,1.319,4.883,1.802,7.383c1.657,8.562,8.25,15.666,16.169,19.317c1.457,0.672,2.963,1.204,4.488,1.672
					c34.12-37.677,55.277-87.393,56.254-142.207c0.058-3.268,0.031-6.518-0.054-9.753
					C581.964,471.387,578.004,470.141,573.938,468.945z"/>
				<path style="fill:#E9BC38;" d="M462.849,322.722c-0.825,2.901,1.744,5.662,4.379,7.13c4.879,2.718,10.578,3.43,16.085,4.362
					c5.507,0.932,11.214,2.248,15.476,5.858c4.262,3.61,6.517,10.175,3.632,14.958c-2.148,3.561-6.397,5.198-10.409,6.295
					c-7.026,1.922-14.298,2.943-21.582,3.029c-4.546,0.054-10.232,0.438-11.927,4.656c-1.706,4.246,2.208,8.492,5.665,11.49
					c3.457,2.998,7.152,7.584,5.013,11.629c-1.645,3.111-6.256,4.372-6.717,7.861c-0.507,3.836,4.373,5.936,8.233,6.211
					c13.292,0.947,26.897-4.301,36.111-13.928c3.209-3.353,5.902-7.193,9.315-10.337c3.414-3.144,7.813-5.614,12.447-5.352
					c7.383,0.417,12.711,7.527,14.749,14.635c2.038,7.108,1.89,14.717,4.081,21.779c2.717,8.759,9.124,16.307,17.326,20.41
					c5.367,2.685,11.451,3.84,17.438,3.477c-9.232-47.977-34.246-90.448-69.513-121.687c-13.908,1.11-27.816,2.22-41.724,3.33
					C467.695,318.785,463.736,319.605,462.849,322.722z"/>
				<path style="fill:#E9BC38;" d="M350.423,634.379c-1.212-7.127,1.339-14.497,0.117-21.622
					c-1.858-10.833-11.689-18.235-20.917-24.206c-8.619-5.576-18.817-11.92-22.195-22.24c-3.37-10.294,1.695-19.728,12.481-12.14
					c2.102,1.479,4.846,2.744,7.156,1.618c2.617-1.275,3.079-4.747,4.694-7.169c3.015-4.524,10.541-6.079,10.867-11.506
					c0.246-4.108-4.076-6.933-5.58-10.764c-1.489-3.794-0.047-8.016,0.517-12.052c0.563-4.037-0.464-9.118-4.352-10.341
					c-3.474-1.093-7.06,1.736-8.709,4.983c-1.649,3.247-2.126,6.991-3.794,10.229c-1.668,3.237-5.299,6.029-8.753,4.877
					c-3.665-1.222-4.696-5.75-6.196-9.311c-6.07-14.41-26.572-19.387-30.683-34.473c-1.457-5.347-0.491-11.018,0.483-16.473
					c2.107-11.803,4.214-23.607,6.32-35.41c6.34,6.037,14.136,5.315,20.967,9.798c10.451,6.858,11.686,22.778,26.532,22.21
					c4.899-0.187,9.389-3.037,12.633-6.713c3.244-3.676,5.43-8.143,7.577-12.551c5.181-10.638,10.363-21.276,15.545-31.914
					c-3.504-2.161-8.194-0.234-11.142,2.639c-2.948,2.874-4.996,6.626-8.22,9.186c-3.224,2.56-8.468,3.455-11.162,0.342
					c-1.636-1.891-1.797-4.609-1.828-7.109c-0.126-10.161,0.572-20.332,2.083-30.38c0.601-3.993,1.358-8.05,3.317-11.581
					s5.334-6.501,9.342-6.988c7.566-0.92,13.154,6.618,16.975,13.212c3.64,6.283,7.281,12.566,10.921,18.849
					c1.887,3.256,3.892,6.638,7.07,8.653c3.178,2.015,7.896,2.141,10.303-0.752c2.029-2.439,1.745-6.143,0.341-8.987
					c-1.405-2.844-3.725-5.108-5.71-7.583c-6.184-7.71-9.178-17.902-8.148-27.732c0.776-7.399,3.604-15.404-0.07-21.873
					c-3.749-6.602-12.401-8.215-19.962-8.911c-15.419-1.419-31.086-1.954-45.92-6.392c-12.03-3.599-26.259-10.607-31.759-22.333
					c-3.004-6.403-4.951-13.297-5.806-20.322c-47.286,22.259-85.352,61.045-106.598,109.053c4.572,5.25,10.215,9.552,16.598,12.355
					c4.302,1.889,9.428,3.675,10.999,8.103c0.767,2.164,0.48,4.541,0.183,6.817c-3.118,23.924-5.539,47.434-3.773,71.615
					c0.28,3.834,2.352,8.962,6.072,7.995c2.541-0.66,3.353-3.801,3.713-6.402c2.359-17.081,4.718-34.162,7.077-51.244
					c1.782,0.042,3.563,0.084,5.345,0.126c4.748,10.173,5.849,21.623,6.54,32.828c0.691,11.205,1.069,22.596,4.545,33.271
					c3.476,10.675,10.61,20.767,21.058,24.873c7.715,3.032,16.395,2.541,24.301,5.033c10.635,3.353,9.471,11.112,11.01,20.717
					c-13.815,0.898-27.629,1.796-41.444,2.694c-4.893,0.318-10.635,1.159-12.915,5.498c-2.288,4.353,0.296,9.679-0.34,14.555
					c-0.705,5.4-5.157,9.399-9.094,13.162c-7.332,7.008-13.814,14.904-19.259,23.461c-0.045,0.07-0.087,0.143-0.132,0.214
					c39.093,47.876,98.194,78.891,164.834,80.078c8.188,0.146,16.274-0.178,24.243-0.917c-2.684-12.367-8.739-24.013-17.466-33.186
					C363.193,653.368,352.384,645.914,350.423,634.379z"/>
				<path style="fill:#F3D54A;" d="M428.167,268.846c-10.951-3.12-22.255-5.418-33.849-6.796c8.859,4.043,17.814,7.415,27.436,7.093
					C423.89,269.072,426.037,268.833,428.167,268.846z"/>
				<path style="fill:#F3D54A;" d="M509.149,603.343c-0.484-2.5-0.576-5.152-1.802-7.383c-1.226-2.232-4.155-3.835-6.353-2.55
					c-1.574,0.92-2.141,2.879-2.574,4.649c-1.795,7.343-3.59,14.687-5.385,22.03c-0.653,2.67-1.795,5.831-4.495,6.345
					c-2.335,0.445-4.562-1.582-5.219-3.867c-0.657-2.285-0.163-4.723,0.314-7.051c4.388-21.41,7.163-43.151,8.294-64.977
					c0.338-6.533,0.41-13.535-3.134-19.034c-2.059-3.195-5.3-5.82-6.048-9.547c-1.063-5.293,3.295-10.009,4.778-15.201
					c1.629-5.705-0.296-11.729-1.534-17.532c-0.863-4.044-1.233-8.739,1.488-11.853c2.95-3.375,8.09-3.352,12.316-4.846
					c7.314-2.586,12.152-10.822,10.848-18.47c-0.426-2.499-1.421-4.889-1.672-7.412c-0.25-2.523,0.462-5.394,2.63-6.709
					c3.355-2.034,7.473,0.734,10.494,3.238c10.679,8.852,22.648,16.136,35.406,21.578c5.552,2.368,10.811,2.537,16.438,4.192
					c4.066,1.196,8.026,2.442,12.068,3.427c-0.318-12.095-1.623-23.95-3.844-35.488c-5.987,0.363-12.071-0.792-17.438-3.477
					c-8.201-4.103-14.609-11.651-17.326-20.41c-2.191-7.062-2.043-14.671-4.081-21.779c-2.038-7.108-7.366-14.218-14.749-14.635
					c-4.634-0.262-9.033,2.208-12.447,5.352c-3.414,3.144-6.107,6.984-9.315,10.337c-9.214,9.627-22.819,14.874-36.111,13.928
					c-3.859-0.275-8.74-2.375-8.233-6.211c0.461-3.489,5.072-4.749,6.717-7.861c2.139-4.045-1.556-8.631-5.013-11.629
					c-3.457-2.998-7.371-7.244-5.665-11.49c1.695-4.218,7.381-4.602,11.927-4.656c7.284-0.087,14.556-1.108,21.582-3.029
					c4.011-1.097,8.261-2.734,10.409-6.295c2.884-4.783,0.63-11.348-3.632-14.958c-4.262-3.61-9.969-4.926-15.476-5.858
					c-5.507-0.932-11.206-1.644-16.085-4.362c-2.635-1.468-5.204-4.229-4.379-7.13c0.887-3.117,4.846-3.937,8.077-4.195
					c13.908-1.11,27.816-2.22,41.724-3.33c-22.023-19.507-48.038-34.634-76.708-43.982c1.02,0.841,1.825,1.891,2.211,3.166
					c1.084,3.577-1.442,7.381-4.641,9.315c-3.198,1.935-6.987,2.575-10.512,3.818c-8.613,3.036-15.766,9.972-19.065,18.488
					c-1.348,3.481-3.056,7.978-6.788,7.964c-2.884-0.011-4.796-2.87-6.321-5.317c-13.149-21.088-37.353-34.829-62.201-35.312
					c-5.875-0.114-12.098,0.388-17.277-2.39c-0.951-0.51-1.865-1.254-2.686-2.138c-11.37,3.236-22.363,7.377-32.9,12.337
					c0.855,7.025,2.802,13.919,5.806,20.322c5.501,11.726,19.729,18.734,31.759,22.333c14.834,4.438,30.501,4.973,45.92,6.392
					c7.561,0.696,16.212,2.309,19.962,8.911c3.674,6.469,0.846,14.474,0.07,21.873c-1.031,9.83,1.964,20.022,8.148,27.732
					c1.985,2.475,4.305,4.739,5.71,7.583c1.405,2.844,1.689,6.548-0.341,8.987c-2.407,2.893-7.125,2.767-10.303,0.752
					c-3.178-2.015-5.183-5.397-7.07-8.653c-3.64-6.283-7.281-12.566-10.921-18.849c-3.821-6.594-9.41-14.133-16.975-13.212
					c-4.008,0.488-7.384,3.457-9.342,6.988s-2.716,7.588-3.317,11.581c-1.511,10.049-2.208,20.22-2.083,30.38
					c0.031,2.5,0.192,5.218,1.828,7.109c2.693,3.113,7.938,2.218,11.162-0.342c3.224-2.56,5.272-6.313,8.22-9.186
					c2.947-2.874,7.638-4.8,11.142-2.639c-5.181,10.638-10.363,21.276-15.545,31.914c-2.147,4.408-4.333,8.875-7.577,12.551
					c-3.244,3.676-7.735,6.526-12.633,6.713c-14.846,0.568-16.081-15.351-26.532-22.21c-6.831-4.482-14.627-3.76-20.967-9.798
					c-2.107,11.803-4.214,23.607-6.32,35.41c-0.974,5.455-1.94,11.127-0.483,16.473c4.111,15.086,24.613,20.063,30.683,34.473
					c1.5,3.56,2.531,8.089,6.196,9.311c3.454,1.152,7.085-1.64,8.753-4.877c1.668-3.237,2.145-6.982,3.794-10.229
					c1.649-3.247,5.236-6.076,8.709-4.983c3.888,1.223,4.915,6.305,4.352,10.341c-0.563,4.037-2.006,8.258-0.517,12.052
					c1.503,3.83,5.826,6.656,5.58,10.764c-0.326,5.427-7.852,6.982-10.867,11.506c-1.615,2.423-2.077,5.894-4.694,7.169
					c-2.31,1.126-5.054-0.139-7.156-1.618c-10.786-7.589-15.851,1.846-12.481,12.14c3.378,10.32,13.576,16.664,22.195,22.24
					c9.228,5.971,19.059,13.372,20.917,24.206c1.222,7.125-1.329,14.495-0.117,21.622c1.961,11.534,12.771,18.989,20.835,27.465
					c8.728,9.173,14.782,20.819,17.466,33.186c13.781-1.278,27.2-3.833,40.13-7.568c-6.577-6.923-12.103-14.905-16.225-23.624
					c-2.136-4.517-3.754-10.38-0.557-14.262c5.439-6.606,18.158,0.005,23.278-6.864c-4.581-5.12-9.163-10.241-13.744-15.362
					c-1.418-1.585-2.943-3.603-2.336-5.689c0.733-2.52,3.926-3.123,6.47-3.009c15.793,0.71,29.43,10.584,42.833,19.029
					c10.041,6.326,21.448,12.15,32.964,12.812c10.175-7.877,19.639-16.631,28.27-26.162c-1.525-0.468-3.032-1-4.488-1.672
					C517.398,619.009,510.806,611.905,509.149,603.343z M320.53,300.093c-2.55,2.368-4.871,5.107-7.99,6.652
					c-3.118,1.546-7.412,1.488-9.558-1.252c-3.747-4.785,1.885-12.663-1.637-17.617c-1.286-1.809-3.648-2.899-4.233-5.04
					c-0.515-1.885,0.65-3.904,2.271-4.996c4.751-3.202,8.014,0.356,12.56,1.915c5.327,1.827,11.109,2.344,16.669,1.424
					c2.281-0.377,4.577-0.99,6.871-0.7c2.294,0.289,4.646,1.783,5.037,4.062c0.329,1.918-0.828,3.834-2.367,5.025
					c-1.538,1.192-3.421,1.827-5.219,2.571C328.37,294.025,324.148,296.733,320.53,300.093z M368.313,316.244
					c-0.212,1.424-0.969,2.842-2.253,3.494c-1.392,0.708-3.119,0.383-4.482-0.379c-1.363-0.762-2.461-1.909-3.628-2.947
					c-4.211-3.746-9.556-6.198-15.141-6.948c-1.511-0.203-3.069-0.292-4.469-0.895c-1.401-0.603-2.645-1.873-2.681-3.398
					c-0.049-2.018,1.901-3.463,3.716-4.343c4.085-1.981,8.417-2.442,12.742-3.448c4.017-0.935,7.707-0.449,10.727,2.716
					c3.016,3.161,4.274,7.58,5.14,11.863C368.269,313.371,368.524,314.82,368.313,316.244z M408.788,455.192
					c-0.502,1.848-3.207,1.482-4.987,2.188c-2.441,0.969-3.049,4.086-3.263,6.703c-0.214,2.617-0.706,5.721-3.087,6.83
					c-1.642,0.765-3.555,0.24-5.365,0.174c-3.908-0.141-7.622,1.988-10.289,4.849c-2.667,2.86-4.456,6.408-6.21,9.904
					c-2.205-7.435,1.612-16.185,8.562-19.626c3.258-1.613,7.57-2.712,8.445-6.241c1.065-4.296-4.189-8.522-2.631-12.664
					c3.573,0.006,5.529,1.234,8.03,3.42c2.777,2.426,4.745,1.428,8.139,1.705C407.586,452.552,409.17,453.784,408.788,455.192z"/>
				<path style="fill:#E9BC38;" d="M425.739,618.654c-2.544-0.114-5.736,0.489-6.47,3.009c-0.607,2.087,0.918,4.104,2.336,5.689
					c4.582,5.121,9.163,10.241,13.744,15.362c-5.12,6.869-17.839,0.258-23.278,6.864c-3.196,3.882-1.579,9.745,0.557,14.262
					c4.122,8.718,9.648,16.7,16.225,23.624c26.667-7.702,51.253-20.379,72.682-36.969c-11.516-0.662-22.923-6.486-32.964-12.812
					C455.169,629.238,441.532,619.364,425.739,618.654z"/>
				<path style="fill:#E9BC38;" d="M311.347,270.947c5.178,2.778,11.402,2.276,17.277,2.39
					c24.847,0.483,49.051,14.224,62.201,35.312c1.526,2.447,3.438,5.306,6.321,5.317c3.733,0.014,5.44-4.483,6.788-7.964
					c3.299-8.516,10.452-15.452,19.065-18.488c3.525-1.243,7.314-1.884,10.512-3.818c3.198-1.934,5.724-5.738,4.641-9.315
					c-0.386-1.275-1.192-2.325-2.211-3.166c-2.57-0.838-5.163-1.624-7.774-2.368c-2.13-0.013-4.277,0.225-6.413,0.297
					c-9.622,0.322-18.577-3.05-27.436-7.093c-7.254-0.862-14.62-1.371-22.081-1.504c-22.058-0.393-43.403,2.52-63.576,8.263
					C309.483,269.693,310.396,270.437,311.347,270.947z"/>
				<path style="fill:#E9BC38;" d="M340.518,284.541c-0.391-2.279-2.743-3.773-5.037-4.062c-2.294-0.289-4.59,0.323-6.871,0.7
					c-5.56,0.92-11.341,0.403-16.669-1.424c-4.546-1.559-7.808-5.117-12.56-1.915c-1.62,1.092-2.785,3.111-2.271,4.996
					c0.585,2.141,2.947,3.231,4.233,5.04c3.522,4.953-2.111,12.832,1.637,17.617c2.146,2.74,6.44,2.798,9.558,1.252
					c3.118-1.546,5.439-4.284,7.99-6.652c3.618-3.36,7.84-6.068,12.403-7.956c1.798-0.744,3.68-1.379,5.219-2.571
					C339.69,288.375,340.847,286.459,340.518,284.541z"/>
				<path style="fill:#E9BC38;" d="M362.844,300.097c-3.02-3.165-6.71-3.651-10.727-2.716c-4.325,1.007-8.657,1.467-12.742,3.448
					c-1.816,0.88-3.765,2.325-3.716,4.343c0.037,1.524,1.281,2.795,2.681,3.398c1.4,0.603,2.958,0.692,4.469,0.895
					c5.585,0.75,10.93,3.202,15.141,6.948c1.167,1.038,2.265,2.184,3.628,2.947c1.363,0.762,3.09,1.087,4.482,0.379
					c1.284-0.653,2.041-2.07,2.253-3.494c0.212-1.424-0.043-2.873-0.329-4.284C367.118,307.677,365.86,303.257,362.844,300.097z"/>
				<path style="fill:#E9BC38;" d="M406.132,452.434c-3.394-0.276-5.361,0.722-8.139-1.705c-2.502-2.186-4.458-3.414-8.03-3.42
					c-1.558,4.142,3.696,8.368,2.631,12.664c-0.874,3.529-5.187,4.627-8.445,6.241c-6.95,3.441-10.767,12.192-8.562,19.626
					c1.753-3.496,3.543-7.044,6.21-9.904c2.667-2.86,6.381-4.99,10.289-4.849c1.81,0.065,3.723,0.59,5.365-0.174
					c2.38-1.109,2.872-4.213,3.087-6.83c0.214-2.617,0.823-5.735,3.263-6.703c1.78-0.706,4.485-0.34,4.987-2.188
					C409.17,453.784,407.586,452.552,406.132,452.434z"/>
			</g>
		</g>
		<g>
			<g>
				<g>
					<path style="fill:none;stroke:#111414;stroke-width:2;stroke-linecap:round;stroke-linejoin:round;" d="M388.814,287.124
						c0.129,0.989,0.258,1.981,0.389,2.974"/>
					
						<path style="fill:none;stroke:#111414;stroke-width:2;stroke-linecap:round;stroke-linejoin:round;stroke-dasharray:5.6291,5.6291;" d="
						M389.945,295.677c3.346,24.814,7.413,50.544,13.192,74.812"/>
					<path style="fill:none;stroke:#111414;stroke-width:2;stroke-linecap:round;stroke-linejoin:round;" d="M403.798,373.227
						c0.238,0.973,0.479,1.943,0.723,2.911c-0.994,0.073-1.991,0.143-2.992,0.21"/>
					
						<path style="fill:none;stroke:#111414;stroke-width:2;stroke-linecap:round;stroke-linejoin:round;stroke-dasharray:6.0211,6.0211;" d="
						M395.518,376.711c-41.486,2.25-88.238-0.524-129.056-6.883"/>
					<path style="fill:none;stroke:#111414;stroke-width:2;stroke-linecap:round;stroke-linejoin:round;" d="M263.487,369.357
						c-0.99-0.16-1.977-0.322-2.96-0.485"/>
				</g>
			</g>
			<g>
				<g>
					
						<line style="fill:none;stroke:#111414;stroke-width:2;stroke-linecap:round;stroke-linejoin:round;" x1="239.574" y1="373.895" x2="239.574" y2="376.895"/>
					
						<line style="fill:none;stroke:#111414;stroke-width:2;stroke-linecap:round;stroke-linejoin:round;stroke-dasharray:5.9298,5.9298;" x1="239.574" y1="382.825" x2="239.574" y2="474.737"/>
					<polyline style="fill:none;stroke:#111414;stroke-width:2;stroke-linecap:round;stroke-linejoin:round;" points="
						239.574,477.702 239.574,480.702 242.574,480.702 					"/>
					
						<line style="fill:none;stroke:#111414;stroke-width:2;stroke-linecap:round;stroke-linejoin:round;stroke-dasharray:5.8423,5.8423;" x1="248.417" y1="480.702" x2="338.972" y2="480.702"/>
					<polyline style="fill:none;stroke:#111414;stroke-width:2;stroke-linecap:round;stroke-linejoin:round;" points="
						341.894,480.702 344.894,480.702 344.894,477.702 					"/>
					
						<line style="fill:none;stroke:#111414;stroke-width:2;stroke-linecap:round;stroke-linejoin:round;stroke-dasharray:5.3933,5.3933;" x1="344.894" y1="472.309" x2="344.894" y2="442.646"/>
					
						<line style="fill:none;stroke:#111414;stroke-width:2;stroke-linecap:round;stroke-linejoin:round;" x1="344.894" y1="439.949" x2="344.894" y2="436.949"/>
				</g>
			</g>
		</g>
		<g>
			<g>
				<polygon style="fill:#487424;" points="369.653,267.17 359.498,290.236 378.937,290.236 				"/>
				<g>
					<polygon style="fill:#7CAC35;" points="364.288,257.499 376.833,295.523 458.507,294.653 435.368,257.499 					"/>
					<g>
						
							<line style="fill:none;stroke:#111414;stroke-linecap:round;stroke-linejoin:round;stroke-miterlimit:10;" x1="391.203" y1="259.277" x2="405.468" y2="291.702"/>
						
							<line style="fill:none;stroke:#111414;stroke-linecap:round;stroke-linejoin:round;stroke-miterlimit:10;" x1="412.872" y1="259.787" x2="430.169" y2="291.702"/>
					</g>
					<polygon style="fill:#375B1A;" points="364.288,257.499 366.693,257.499 380.17,295.488 376.833,295.523 					"/>
				</g>
				<g>
					<polygon style="fill:#487424;" points="393.62,260.562 398.437,270.789 416.271,270.789 410.978,260.562 					"/>
					<polygon style="fill:#487424;" points="415.681,260.562 420.702,270.789 437.976,270.789 432.684,260.562 					"/>
					<polygon style="fill:#487424;" points="376.178,273.038 378.789,281.017 397.575,281.017 394.386,273.038 					"/>
					<polygon style="fill:#487424;" points="371.3,260.562 374.71,270.789 393.496,270.789 389.509,260.562 					"/>
					<polygon style="fill:#487424;" points="428.329,283.084 433.246,291.425 451.903,291.425 446.538,283.084 					"/>
					<polygon style="fill:#487424;" points="399.103,273.038 402.657,281.017 421.729,281.017 417.311,273.038 					"/>
					<polygon style="fill:#487424;" points="421.729,272.857 426.645,281.198 445.302,281.198 439.937,272.857 					"/>
					<polygon style="fill:#487424;" points="380.504,283.265 383.116,291.244 401.902,291.244 398.713,283.265 					"/>
					<polygon style="fill:#487424;" points="404.18,283.265 407.734,291.244 427.826,291.244 423.438,283.265 					"/>
				</g>
				<polygon style="opacity:0.19;fill:#FFFFFF;" points="422.225,257.499 410.799,273.916 406.204,272.233 391.203,295.37 
					404.52,295.228 413.161,284.001 419.48,286.682 439.113,263.513 435.368,257.499 				"/>
			</g>
			<path style="fill:#375B1A;" d="M436.886,299.052c-0.332-2.068,0.385-4.278,1.869-5.756c1.484-1.478,3.696-2.188,5.763-1.848
				c-0.003-2.941,1.166-5.923,3.374-7.864s5.473-2.71,8.23-1.69c2.758,1.02,4.786,3.913,4.541,6.843
				c2.13-2.128,5.662-2.69,8.347-1.328c2.685,1.362,4.318,4.544,3.859,7.519c1.526-0.896,3.549-0.868,5.05,0.07
				c1.501,0.938,2.412,2.745,2.275,4.509"/>
		</g>
		<g>
			<polygon style="fill:#487424;" points="260.092,432.687 270.247,455.752 250.808,455.752 			"/>
			<polygon style="fill:#7CAC35;" points="265.456,423.016 252.911,461.04 171.238,460.17 194.377,423.016 			"/>
			<g>
				
					<line style="fill:none;stroke:#111414;stroke-linecap:round;stroke-linejoin:round;stroke-miterlimit:10;" x1="189.629" y1="436.915" x2="256.043" y2="436.915"/>
				
					<line style="fill:none;stroke:#111414;stroke-linecap:round;stroke-linejoin:round;stroke-miterlimit:10;" x1="182.863" y1="447.83" x2="252.34" y2="447.83"/>
			</g>
			<polygon style="fill:#487424;" points="257.87,426.079 254.524,435.319 235.738,435.319 239.661,426.079 			"/>
			<polygon style="fill:#487424;" points="236.975,426.079 232.605,435.319 213.921,435.319 218.766,426.079 			"/>
			<polygon style="fill:#487424;" points="215.269,426.079 210.19,435.638 191.533,435.638 197.061,426.079 			"/>
			<polygon style="fill:#487424;" points="252.865,438.555 250.381,445.979 231.595,445.979 234.656,438.555 			"/>
			<polygon style="fill:#487424;" points="230.642,438.555 227.279,445.979 208.207,445.979 212.433,438.555 			"/>
			<polygon style="fill:#487424;" points="208.016,438.374 203.163,445.979 184.506,445.979 189.807,438.374 			"/>
			<polygon style="fill:#487424;" points="247.915,449.617 245.176,456.761 226.39,456.761 229.707,449.617 			"/>
			<polygon style="fill:#487424;" points="225.245,449.617 222.011,456.761 201.919,456.761 205.988,449.617 			"/>
			<polygon style="fill:#487424;" points="201.032,449.298 196.499,456.942 177.842,456.942 182.824,449.298 			"/>
			<polyline style="fill:#375B1A;" points="265.456,423.016 269.383,423.016 257,461.04 252.911,461.04 			"/>
		</g>
		<g>
			<g>
				<path style="fill:#333333;" d="M490.55,314.534c-2.164-1.552-3.501-4.194-3.47-6.856c0.031-2.663,1.429-5.273,3.629-6.774
					c-1.655-4.809-0.959-10.368,1.832-14.62c2.791-4.252,7.613-7.103,12.684-7.497c2.646-5.945,5.785-11.877,10.723-16.114
					c4.939-4.237,12.051-6.475,18.12-4.128c5.548,2.146,9.196,7.663,10.806,13.389c1.641,5.838,1.489,12.236-0.832,17.838
					c-2.321,5.602-6.88,10.326-12.557,12.459c-5.677,2.132-12.409,1.507-17.375-1.973c1.436,2.083,1.034,5.106-0.606,7.033
					c-1.639,1.927-4.279,2.817-6.807,2.734c-2.528-0.083-4.958-1.042-7.152-2.303c0.706,2.012-0.434,4.482-2.423,5.25"/>
				<g>
					<polygon style="fill:#111414;" points="497.894,315.634 489.879,315.634 488.367,338.471 498.877,338.471 					"/>
					<rect x="486.779" y="311.778" style="fill:#111414;" width="13.309" height="5.974"/>
					
						<line style="fill:none;stroke:#333333;stroke-linecap:round;stroke-linejoin:round;stroke-miterlimit:10;" x1="489.739" y1="317.752" x2="497.986" y2="317.752"/>
				</g>
			</g>
			<g>
				<polygon style="fill:#111414;" points="439.113,359.493 439.869,326.841 456.808,336.203 456.808,326.841 474.831,338.169 
					474.831,326.841 501.12,335.446 501.12,359.493 				"/>
				
					<line style="fill:none;stroke:#333333;stroke-linecap:round;stroke-linejoin:round;stroke-miterlimit:10;" x1="488.833" y1="331.425" x2="498.713" y2="334.659"/>
				<g>
					<polyline style="fill:#333333;" points="444.76,339.882 451.616,343.512 451.616,351.83 444.76,351.83 					"/>
					<polyline style="fill:#333333;" points="460.891,339.882 467.747,343.512 467.747,351.83 460.891,351.83 					"/>
					<polyline style="fill:#333333;" points="477.803,339.882 484.659,343.512 484.659,351.83 477.803,351.83 					"/>
				</g>
			</g>
		</g>
		<g>
			<g>
				<path style="fill:#333333;" d="M453.361,414.982c-5.599-3.9-10.6-15.074-3.092-19.37c-6.731-9.044,2.699-24.396,13.978-22.931
					c18.135,1.132,16.932,29.379-1.235,28.961c3.923,3.942,3.119,12.552-3.341,12.713"/>
				<g>
					<polygon style="fill:#111414;" points="462.672,416.377 452.51,416.377 450.593,445.329 463.919,445.329 					"/>
					<rect x="448.58" y="411.488" style="fill:#111414;" width="16.872" height="7.574"/>
					
						<line style="fill:none;stroke:#333333;stroke-linecap:round;stroke-linejoin:round;stroke-miterlimit:10;" x1="452.333" y1="419.061" x2="462.781" y2="418.907"/>
				</g>
			</g>
			<g>
				<polygon style="fill:#111414;" points="388.15,471.98 389.109,430.585 410.583,442.453 410.583,430.585 433.433,444.945 
					433.433,430.585 466.761,441.494 466.761,471.98 				"/>
				
					<line style="fill:none;stroke:#333333;stroke-linecap:round;stroke-linejoin:round;stroke-miterlimit:10;" x1="451.185" y1="436.396" x2="463.71" y2="440.496"/>
				<g>
					<polyline style="fill:#333333;" points="395.31,447.118 404.002,451.719 404.002,462.265 395.31,462.265 					"/>
					<polyline style="fill:#333333;" points="415.76,447.118 424.452,451.719 424.452,462.265 415.76,462.265 					"/>
					<polyline style="fill:#333333;" points="437.201,447.118 445.893,451.719 445.893,462.265 437.201,462.265 					"/>
				</g>
			</g>
		</g>
		<g>
			<g>
				<g>
					<path style="fill:#7CAC35;" d="M236.688,368.202l-3.255-92.962l7.29-1.207l17.469,93.146
						c-0.734,0.737-5.308,5.184-12.209,4.793C241.102,371.693,237.805,369.15,236.688,368.202z"/>
					<polyline style="fill:#487424;" points="243.082,284.716 234.333,300.93 233.627,280.763 243.433,284.747 					"/>
				</g>
				<g>
					<g>
						<polygon style="fill:#375B1A;" points="219.418,273.262 227.511,288.383 187.355,302.613 185.609,299.687 						"/>
						
							<line style="fill:none;stroke:#111414;stroke-linecap:round;stroke-linejoin:round;stroke-miterlimit:10;" x1="221.324" y1="281.947" x2="192.66" y2="297.383"/>
					</g>
					<g>
						<path style="fill:#7CAC35;" d="M218.499,275.433l30.508-12.383c1.131,0.948,4.598,4.097,5.749,9.507
							c1.365,6.418-1.515,11.39-2.18,12.477c-10.708-0.357-21.417-0.715-32.125-1.072c-0.285-0.164-2.609-1.554-2.984-4.371
							C217.178,277.427,218.226,275.825,218.499,275.433z"/>
						<path style="fill:#375B1A;" d="M219.397,280.73c0.272,0.646,0.798,1.289,1.498,1.301c0.488,0.009,0.941-0.309,1.201-0.723
							c0.26-0.414,0.354-0.911,0.388-1.398c0.06-0.849-0.056-1.74-0.518-2.455c-0.309-0.478-0.793-0.861-1.344-1.017
							c-0.71-0.201-0.939,0.006-1.208,0.644C218.929,278.231,218.912,279.578,219.397,280.73z"/>
					</g>
					<g>
						<g>
							<polygon style="fill:#375B1A;" points="234.465,288.12 239.614,274.105 277.264,293.352 274.327,296.428 							"/>
							<path style="fill:none;stroke:#111414;stroke-linecap:round;stroke-linejoin:round;stroke-miterlimit:10;" d="
								M237.277,281.426c0.766,0.128,32.681,11.298,32.681,11.298"/>
						</g>
						<path style="fill:#375B1A;" d="M238.816,279.502l-6.824-3.072c0.216,0.449,0.474,1.123,0.57,1.976
							c0.14,1.251-0.142,2.254-0.34,2.797c1.699,0.615,3.399,1.23,5.098,1.845"/>
					</g>
					<g>
						<g>
							<polygon style="fill:#375B1A;" points="221.581,267.165 236.262,267.671 232.547,217.763 227.459,217.667 							"/>
							
								<line style="fill:none;stroke:#111414;stroke-linecap:round;stroke-linejoin:round;stroke-miterlimit:10;" x1="228.596" y1="264.957" x2="229.73" y2="224.553"/>
						</g>
						<path style="fill:#375B1A;" d="M226.504,266.678l0.136,5.427c0.304-0.073,0.933-0.178,1.664,0.044
							c1.143,0.347,1.703,1.242,1.84,1.474c0.372-2.457,0.744-4.914,1.117-7.372"/>
					</g>
					<path style="fill:none;stroke:#111414;stroke-linecap:round;stroke-linejoin:round;stroke-miterlimit:10;" d="M226.583,271.818
						c2.665,0.491,4.997,2.493,5.885,5.053c0.888,2.56,0.298,5.576-1.489,7.612"/>
				</g>
			</g>
			<path style="fill:#375B1A;" d="M224.171,376.137c-0.676-2.365-0.161-4.962,1.391-7.002c1.551-2.04,4.116-3.493,6.913-3.917
				c-0.776-4.205,0.588-8.765,4.049-11.818c3.461-3.053,9.064-4.341,13.676-2.759c4.611,1.581,7.688,6.165,6.494,10.297
				c0.556-2.292,3.477-3.843,6.189-3.573c2.712,0.27,5.013,2.103,5.939,4.305c0.927,2.202,0.612,4.689-0.425,6.854
				c2.106-1.303,5.297-1.097,7.151,0.463c1.854,1.559,2.155,4.29,0.674,6.119"/>
		</g>
		<g>
			<g>
				<g>
					<path style="fill:#7CAC35;" d="M350.418,433.284l-3.514-89.011l-7.048-0.634l-10.048,90.199
						c0.753,0.652,5.439,4.573,12.001,3.707C346.451,436.933,349.419,434.269,350.418,433.284z"/>
					<polyline style="fill:#487424;" points="338.365,354.01 347.875,368.871 347.113,349.562 338.032,354.065 					"/>
				</g>
				<g>
					<g>
						<polygon style="fill:#375B1A;" points="360.148,341.386 353.796,354.957 392.859,367.133 394.318,364.214 						"/>
						
							<line style="fill:none;stroke:#111414;stroke-linecap:round;stroke-linejoin:round;stroke-miterlimit:10;" x1="359.145" y1="348.814" x2="389.032" y2="363.223"/>
					</g>
					<g>
						<path style="fill:#7CAC35;" d="M361.181,343.394l-30.017-9.653c-1.013,0.986-4.099,4.24-4.813,9.488
							c-0.847,6.227,2.258,10.77,2.971,11.76c10.201-1.104,20.402-2.208,30.603-3.312c0.261-0.177,2.381-1.67,2.538-4.387
							C362.584,345.204,361.469,343.749,361.181,343.394z"/>
						<g>
							<g>
								<polygon style="fill:#375B1A;" points="346.012,356.647 340.096,343.629 305.511,364.693 308.536,367.421 								"/>
								
									<line style="fill:none;stroke:#111414;stroke-linecap:round;stroke-linejoin:round;stroke-miterlimit:10;" x1="343.086" y1="350.208" x2="311.957" y2="363.846"/>
							</g>
							<path style="fill:#375B1A;" d="M341.243,348.727l6.298-3.42c-0.174,0.444-0.373,1.107-0.403,1.928
								c-0.044,1.204,0.296,2.142,0.524,2.647c-1.579,0.708-3.158,1.417-4.737,2.125"/>
						</g>
						<g>
							<g>
								<polygon style="fill:#375B1A;" points="357.952,336.497 343.887,336.73 348.298,289.007 353.171,289.002 								"/>
								
									<line style="fill:none;stroke:#111414;stroke-linecap:round;stroke-linejoin:round;stroke-miterlimit:10;" x1="350.973" y1="336.613" x2="350.973" y2="298.596"/>
							</g>
							<path style="fill:#375B1A;" d="M353.247,335.947l-0.223,5.194c-0.29-0.075-0.891-0.187-1.594,0.014
								c-1.1,0.313-1.652,1.16-1.787,1.38c-0.314-2.359-0.629-4.718-0.943-7.078"/>
						</g>
						<path style="fill:none;stroke:#111414;stroke-linecap:round;stroke-linejoin:round;stroke-miterlimit:10;" d="
							M352.987,340.714c-4.889,0.552-7.455,9.322-3.282,11.989"/>
						<path style="fill:#375B1A;" d="M357.222,346.406c-0.203,0.878-0.106,1.823,0.272,2.641c0.199,0.43,0.494,0.843,0.925,1.039
							c0.461,0.21,1.023,0.134,1.455-0.131c0.432-0.264,0.744-0.697,0.936-1.166c0.192-0.469,0.273-0.976,0.322-1.481
							c0.052-0.533,0.07-1.077-0.054-1.599c-0.124-0.521-0.403-1.022-0.846-1.323c-0.477-0.324-1.372-0.411-1.843-0.02
							C357.796,344.86,357.393,345.668,357.222,346.406z"/>
					</g>
				</g>
			</g>
			<path style="fill:#375B1A;" d="M305.662,444.761c-0.577-3.218-0.366-6.775,1.576-9.405c1.942-2.63,5.984-3.834,8.625-1.907
				c0.37-4.449,3.385-8.576,7.511-10.28c4.126-1.704,9.175-0.909,12.576,1.981c3.181,2.703,4.751,6.798,6.198,10.714
				c0.839-4.062,5.022-7.139,9.15-6.732c4.128,0.408,7.628,4.243,7.657,8.391c1.411-2.855,5.24-4.22,8.139-2.9
				c2.899,1.319,4.385,5.102,3.158,8.042"/>
		</g>
		<g>
			<path style="fill:#375B1A;" d="M299.47,312.119c3.439-7.839,4.963-16.51,4.401-25.052c0,0,8.455,0,8.628,0
				c0.382,0,0.123,6.14,0.121,6.584c-0.013,2.565,0.136,5.146,0.71,7.653c0.938,4.091,3.166,8.071,6.79,10.188"/>
			<path style="fill:#7CAC35;" d="M289.589,315.954c-1.005-1.321-0.872-3.07-0.109-4.498c1.195-2.236,3.628-4.493,6.579-5.044
				c3.414-0.637,7.234,0.726,9.021,3.221c0.773-1.973,2.769-3.585,5.168-4.175s5.132-0.14,7.077,1.165
				c1.945,1.304,3.047,3.427,2.852,5.495c0.695-1.042,2.276-1.575,3.688-1.356c1.412,0.219,2.604,1.113,3.164,2.21
				c0.56,1.097,0.528,2.365,0.076,3.495"/>
			<g>
				<path style="fill:#487424;" d="M326.457,287.999c-4.629,2.064-11.886,1.33-13.14-4.404c-5.825,8.549-20.606,0.761-13.454-8.196
					c-5.193,0.252-9.453-4.012-9.105-9.219c-2.2,4.263-0.769,9.554,3.279,12.018c-4.795,1.58-8.529,7.221-6.018,12.053
					c4.324,6.927,14.431,4.804,21.178,3.238c7.185-1.223,18.622,1.414,21.117-7.685C329.226,286.82,327.85,287.477,326.457,287.999z
					"/>
				<path style="fill:#7CAC35;" d="M330.522,283.47c-0.227-2.896-2.414-5.614-5.263-6.18c5.76-4.595,3.536-14.564-3.629-16.276
					c7.699-3.533,2.071-14.706-5.557-12.45c10.193-14.467-17.692-17.8-11.952-1.14c-6.686-0.338-13.458,8.406-6.829,13.008
					c-10.872,1.952-7.125,15.245,2.573,14.966c-7.155,8.964,7.636,16.74,13.454,8.196c1.882,7.461,12.298,6.304,16.998,2.209
					C330.501,285.042,330.583,284.258,330.522,283.47z"/>
				<g>
					<path style="fill:none;stroke:#111414;stroke-linecap:round;stroke-linejoin:round;stroke-miterlimit:10;" d="M309.978,253.329
						c1.506-0.111,3.044,0.678,3.833,1.966c0.789,1.288,0.793,3.017,0.01,4.308"/>
					<path style="fill:none;stroke:#111414;stroke-linecap:round;stroke-linejoin:round;stroke-miterlimit:10;" d="M311.277,267.98
						c1.108,0.555,2.236,1.124,3.123,1.99c0.887,0.866,1.511,2.092,1.352,3.322c-0.16,1.229-1.285,2.35-2.518,2.223
						c0.301,1.543-0.493,3.236-1.872,3.991c-1.379,0.755-3.233,0.512-4.371-0.573"/>
					<path style="fill:none;stroke:#111414;stroke-linecap:round;stroke-linejoin:round;stroke-miterlimit:10;" d="M308.862,248.387
						c-0.749-1.625-0.409-3.69,0.821-4.989c0.519-0.548,1.259-0.979,2.001-0.84c0.836,0.157,1.384,0.972,1.67,1.774
						c0.549,1.541,0.472,3.294-0.21,4.781"/>
				</g>
			</g>
		</g>
		<g>
			<path style="fill:#375B1A;" d="M516.863,458.683c4.072-9.281,5.876-19.547,5.211-29.66c0,0,10.011,0,10.215,0
				c0.453,0,0.145,7.27,0.143,7.796c-0.015,3.037,0.161,6.092,0.841,9.061c1.111,4.844,3.748,9.556,8.04,12.062"/>
			<path style="fill:#7CAC35;" d="M491.4,463.703c-0.147-2.14,0.783-4.327,2.425-5.707c1.642-1.38,3.956-1.919,6.039-1.407
				c1.502-3.942,4.716-7.197,8.638-8.751c1.72-0.681,3.638-1.045,5.426-0.571c1.789,0.473,3.393,1.928,3.637,3.762
				c0.758-2.71,3.75-4.587,6.52-4.09c2.77,0.497,4.923,3.296,4.692,6.101c0.037-0.453,1.343-1.265,1.692-1.503
				c0.682-0.465,1.427-0.836,2.205-1.11c1.559-0.55,3.259-0.714,4.892-0.45c3.389,0.548,6.211,3.374,7.854,6.272
				c1.421,2.508,2.088,5.438,1.893,8.314"/>
			<g>
				<path style="fill:#487424;" d="M548.815,430.126c-5.481,2.443-14.073,1.575-15.557-5.214
					c-6.897,10.122-24.397,0.901-15.929-9.703c-6.148,0.298-11.192-4.749-10.78-10.916c-2.605,5.047-0.91,11.311,3.882,14.229
					c-5.677,1.871-10.098,8.549-7.125,14.27c5.12,8.202,17.086,5.688,25.074,3.834c8.507-1.448,22.048,1.674,25.002-9.099
					C552.093,428.731,550.465,429.508,548.815,430.126z"/>
				<path style="fill:#7CAC35;" d="M553.628,424.765c-0.268-3.429-2.858-6.647-6.232-7.317c6.82-5.44,4.186-17.243-4.297-19.27
					c9.115-4.183,2.452-17.412-6.58-14.741c12.068-17.129-20.947-21.075-14.151-1.349c-7.916-0.4-15.934,9.952-8.085,15.402
					c-12.872,2.311-8.436,18.049,3.046,17.719c-8.471,10.613,9.041,19.82,15.929,9.703c2.229,8.834,14.56,7.463,20.125,2.616
					C553.603,426.625,553.7,425.697,553.628,424.765z"/>
				<g>
					<path style="fill:none;stroke:#111414;stroke-linecap:round;stroke-linejoin:round;stroke-miterlimit:10;" d="M520.224,405.878
						c-1.404-0.952-1.575-3.176-0.517-4.502c1.057-1.326,3.025-1.721,4.629-1.169c-0.787-1.033-1.046-2.476-0.569-3.684
						c0.477-1.208,1.714-2.104,3.013-2.082c1.299,0.022,2.542,1.027,2.745,2.31"/>
					<path style="fill:none;stroke:#111414;stroke-linecap:round;stroke-linejoin:round;stroke-miterlimit:10;" d="M532.413,410.376
						c0.738-0.864,1.848-1.398,2.984-1.435c1.049-0.034,2.145,0.383,2.766,1.23c0.621,0.847,0.651,2.133-0.06,2.906
						c1.095-0.416,2.425-0.119,3.239,0.724c0.813,0.843,1.063,2.183,0.609,3.262c-0.455,1.08-1.588,1.837-2.759,1.844"/>
					<path style="fill:none;stroke:#111414;stroke-linecap:round;stroke-linejoin:round;stroke-miterlimit:10;" d="M528.664,381.292
						c-0.716-0.733-1.062-1.812-0.905-2.824c0.157-1.013,0.813-1.936,1.718-2.418c0.51-0.271,1.112-0.406,1.672-0.264
						c0.67,0.17,1.196,0.718,1.491,1.344c0.295,0.625,0.389,1.325,0.445,2.013"/>
				</g>
			</g>
		</g>
	</g>
</g>
<g id="TEXTS">
	<g>
		<text transform="matrix(1 0 0 1 321.3113 52.495)" style="fill:#111414; font-family:'Amaranth-Bold'; font-size:32.4511px;">WORLD</text>
		<text transform="matrix(1 0 0 1 315.5857 72.0048)" style="fill:#FFFFFF; font-family:'Amaranth-Bold'; font-size:13.435px;">ENVIRONMENT DAY</text>
	</g>
</g>
</svg>
